<svg id="eZvJtnDk7SW1" xmlns="http://www.w3.org/2000/svg" xmlns:xlink="http://www.w3.org/1999/xlink" viewBox="0 0 800 800" shape-rendering="geometricPrecision" text-rendering="geometricPrecision"><defs><linearGradient id="eZvJtnDk7SW36-fill" x1="0" y1="0.5" x2="1" y2="0.5" spreadMethod="pad" gradientUnits="objectBoundingBox" gradientTransform="translate(0 0)"><stop id="eZvJtnDk7SW36-fill-0" offset="49.8792%" stop-color="#3f5e7a"/><stop id="eZvJtnDk7SW36-fill-1" offset="49.9718%" stop-color="#032332"/></linearGradient><linearGradient id="eZvJtnDk7SW41-fill" x1="0" y1="0.5" x2="1" y2="0.5" spreadMethod="pad" gradientUnits="objectBoundingBox" gradientTransform="translate(0 0)"><stop id="eZvJtnDk7SW41-fill-0" offset="49%" stop-color="#d26664"/><stop id="eZvJtnDk7SW41-fill-1" offset="49%" stop-color="#061e22"/></linearGradient><linearGradient id="eZvJtnDk7SW44-fill" x1="0" y1="0.5" x2="1" y2="0.5" spreadMethod="pad" gradientUnits="objectBoundingBox" gradientTransform="translate(0 0)"><stop id="eZvJtnDk7SW44-fill-0" offset="49.8446%" stop-color="#02202c"/><stop id="eZvJtnDk7SW44-fill-1" offset="50%" stop-color="#3f5e7a"/></linearGradient><linearGradient id="eZvJtnDk7SW45-fill" x1="0" y1="0.5" x2="1" y2="0.5" spreadMethod="pad" gradientUnits="objectBoundingBox" gradientTransform="translate(0 0)"><stop id="eZvJtnDk7SW45-fill-0" offset="82%" stop-color="#be6966"/><stop id="eZvJtnDk7SW45-fill-1" offset="83%" stop-color="#032332"/></linearGradient><linearGradient id="eZvJtnDk7SW59-fill" x1="0" y1="0.5" x2="1" y2="0.5" spreadMethod="pad" gradientUnits="objectBoundingBox" gradientTransform="translate(0 0)"><stop id="eZvJtnDk7SW59-fill-0" offset="50.8375%" stop-color="#c16b6a"/><stop id="eZvJtnDk7SW59-fill-1" offset="51.0483%" stop-color="#3b5f75"/></linearGradient></defs><line x1="-5.744956" y1="9.799815" x2="5.744956" y2="-9.799815" transform="translate(141.832456 789.737648)" fill="none" stroke="#3f5787" stroke-width="3"/><line x1="-16.596536" y1="7.340776" x2="16.596537" y2="-7.340776" transform="translate(164.173949 772.597057)" fill="none" stroke="#3f5787" stroke-width="3"/><line x1="-3.829969" y1="-7.340776" x2="3.82997" y2="7.340776" transform="translate(184.600456 772.597057)" fill="none" stroke="#3f5787" stroke-width="3"/><line x1="-20.426507" y1="31.183815" x2="20.426507" y2="-31.183814" transform="translate(196.090365 768.353649)" fill="none" stroke="#3f5787" stroke-width="3"/><line x1="21.064836" y1="-5.106628" x2="-21.064835" y2="5.106627" transform="translate(237.581708 732.063208)" fill="none" stroke="#3f5787" stroke-width="3"/><line x1="-4.787462" y1="-26.490626" x2="4.787462" y2="26.490626" transform="translate(263.434006 753.447207)" fill="none" stroke="#3f5787" stroke-width="3"/><line x1="-2.393731" y1="45.321313" x2="2.393731" y2="-45.321313" transform="translate(265.827737 691.848522)" fill="none" stroke="#3f5787" stroke-width="3"/><line x1="-28.405611" y1="10.532418" x2="28.405611" y2="-10.532418" transform="translate(296.62708 635.994791)" fill="none" stroke="#3f5787" stroke-width="3"/><line x1="-7.979105" y1="-5.266209" x2="7.979105" y2="5.266209" transform="translate(333.011796 630.728582)" fill="none" stroke="#3f5787" stroke-width="3"/><line x1="-17.793403" y1="23.890176" x2="17.793402" y2="-23.890176" transform="translate(283.62114 744.463473)" fill="none" stroke="#3f5787" stroke-width="3"/><line x1="-34.469731" y1="12.128239" x2="34.469731" y2="-12.128238" transform="translate(335.884273 708.445059)" fill="none" stroke="#3f5787" stroke-width="3"/><line x1="-5.425791" y1="-17.873193" x2="5.425791" y2="17.873193" transform="translate(375.779795 714.190014)" fill="none" stroke="#3f5787" stroke-width="3"/><line x1="-63.194506" y1="23.937313" x2="63.194506" y2="-23.937313" transform="translate(331.415975 756.00052)" fill="none" stroke="#3f5787" stroke-width="3"/><line x1="-11.809075" y1="-23.937313" x2="11.809075" y2="23.937313" transform="translate(406.419556 756.00052)" fill="none" stroke="#3f5787" stroke-width="3"/><line x1="-5.904538" y1="18.009207" x2="5.904538" y2="-18.009207" transform="translate(412.324094 726.454266)" fill="none" stroke="#3f5787" stroke-width="3"/><line x1="-33.193074" y1="28.405612" x2="33.193073" y2="-28.405612" transform="translate(451.421705 680.039447)" fill="none" stroke="#3f5787" stroke-width="3"/><line x1="-4.468299" y1="-28.405612" x2="4.468299" y2="28.405612" transform="translate(489.083077 680.039447)" fill="none" stroke="#3f5787" stroke-width="3"/><line x1="-22.341491" y1="11.809075" x2="22.341492" y2="-11.809075" transform="translate(515.892867 696.635985)" fill="none" stroke="#3f5787" stroke-width="3"/><line x1="-3.191642" y1="-17.873194" x2="3.191642" y2="17.873194" transform="translate(541.426001 702.700104)" fill="none" stroke="#3f5787" stroke-width="3"/><line x1="-6.383284" y1="-8.298268" x2="6.383284" y2="8.298269" transform="translate(551.000927 728.871567)" fill="none" stroke="#3f5787" stroke-width="3"/><line x1="-3.82997" y1="-15.591907" x2="3.82997" y2="15.591907" transform="translate(561.214181 752.761743)" fill="none" stroke="#3f5787" stroke-width="3"/><line x1="-9.255761" y1="11.945088" x2="9.255761" y2="-11.945088" transform="translate(574.299912 756.408562)" fill="none" stroke="#3f5787" stroke-width="3"/><line x1="-12.128238" y1="6.200133" x2="12.128238" y2="-6.200133" transform="translate(595.683911 738.26334)" fill="none" stroke="#3f5787" stroke-width="3"/><path d="M303.752723,400h-67.39312L219.03706,652.127946l96.327549-.066234L303.752723,400Z" transform="translate(121.953842-.462538)" fill="#fff" stroke="#fff" stroke-width="1.6"/><line x1="-9.89409" y1="-28.83722" x2="9.894089" y2="28.83722" transform="translate(617.706239 760.900428)" fill="none" stroke="#3f5787" stroke-width="3"/><line x1="-9.89409" y1="8.570296" x2="9.894089" y2="-8.570296" transform="translate(637.494418 781.167353)" fill="none" stroke="#3f5787" stroke-width="3"/><line x1="-8.298269" y1="-13.470203" x2="8.298268" y2="13.470203" transform="translate(655.686776 786.06726)" fill="none" stroke="#3f5787" stroke-width="3"/><line x1="-3.989553" y1="19.469015" x2="3.989553" y2="-19.469015" transform="translate(329.022244 694.720999)" fill="none" stroke="#3f5787" stroke-width="3"/><line x1="68.460715" y1="0.319164" x2="-68.460714" y2="-0.319164" transform="translate(401.472512 664.081238)" fill="none" stroke="#3f5787" stroke-width="3"/><line x1="3.989553" y1="-22.341492" x2="-3.989553" y2="22.341493" transform="translate(329.022245 686.103566)" fill="none" stroke="#3f5787" stroke-width="3"/><path d="M342.94942,652.061712L329.467863,400.000001l-22.867428.742124l11.8897,251.385821" transform="translate(119.734128-.462538)" fill="#032332" stroke="#032332" stroke-width="1.6"/><line x1="-8.661271" y1="113.426178" x2="8.661271" y2="-113.426178" transform="matrix(1 0 0 1.133269 349.652173 524.521768)" fill="#fff" stroke="#fff" stroke-width="3"/><line x1="6.74079" y1="113.426178" x2="-6.74079" y2="-113.426177" transform="matrix(1 0 0 1.126964 458.162494 523.806615)" fill="#032332" stroke="#032332" stroke-width="3"/><line x1="6.74079" y1="113.426178" x2="-6.74079" y2="-113.426177" transform="matrix(.999988 0.004913-.005537 1.12695 433.075271 523.806615)" fill="#032332" stroke="#032332" stroke-width="3"/><rect width="108.510321" height="8.249139" rx="0" ry="0" transform="matrix(1.057274 0 0 1 346.544763 387.730258)" fill="url(#eZvJtnDk7SW36-fill)" stroke-width="0"/><path d="M336.208653,396.441935q6.74079-8.249139,0-8.249139" transform="translate(121.953841-.462537)" fill="#d2dbed" fill-opacity="0" stroke="rgba(63,87,135,0)" stroke-width="1.6"/><path d="M336.208653,396.441935q6.74079-8.249139,0-8.249139" transform="matrix(-1 0 0 1 685.860826-.462537)" fill="#d2dbed" fill-opacity="0" stroke="rgba(63,87,135,0)" stroke-width="1.6"/><path d="M282.913733,400v252.061712h32.450877l-3.615181-64.632172-7.996706-186.687415L282.913733,400Z" transform="translate(121.953841-.462538)" fill="#d1f9ff" stroke="#d1f9ff" stroke-width="1.6"/><rect width="93.10826" height="41.484421" rx="0" ry="0" transform="matrix(1 0 0 1.308541 358.313444 333.446192)" fill="#d2dbed" stroke-width="0"/><rect width="93.10826" height="4.820828" rx="0" ry="0" transform="translate(358.313444 328.625364)" fill="url(#eZvJtnDk7SW41-fill)" stroke-width="0"/><path d="" transform="translate(121.953841-.462538)" fill="none" stroke="#3f5787" stroke-width="1.6"/><rect width="108.510321" height="3.558065" rx="0" ry="0" transform="translate(349.652173 395.979398)" fill="#032332" stroke-width="0"/><rect width="108.510321" height="8.792619" rx="0" ry="0" transform="matrix(1.124242 0 0 1.56123 342.911403 419.152848)" fill="url(#eZvJtnDk7SW44-fill)" stroke-width="0"/><rect width="134.048954" height="12.128239" rx="0" ry="0" transform="translate(335.884273 651.633834)" fill="url(#eZvJtnDk7SW45-fill)" stroke-width="0"/><rect width="47.514371" height="54.284066" rx="0" ry="0" transform="translate(403.907334 333.446192)" fill="#ccf8fb" stroke-width="0"/><rect width="45.593889" height="54.284066" rx="0" ry="0" transform="translate(358.313444 333.446192)" fill="#fff" stroke-width="0"/><ellipse rx="11.809075" ry="12.006659" transform="translate(403.907334 360.588226)" fill="#da6666" stroke-width="0"/><line x1="-46.55413" y1="0" x2="46.55413" y2="0" transform="translate(404.867574 386.287462)" fill="#1e3b40" stroke="#1e3b40" stroke-width="3"/><line x1="0" y1="-27.142033" x2="0" y2="27.142033" transform="translate(359.733841 360.588225)" fill="#1e3b40" stroke="#1e3b40" stroke-width="3"/><line x1="0" y1="-27.142033" x2="0" y2="27.142033" transform="matrix(.7 0 0 1 370.354004 360.586679)" fill="#1e3b40" stroke="#1e3b40" stroke-width="3"/><line x1="0" y1="-27.142033" x2="0" y2="27.142033" transform="matrix(-.7 0 0 0.911193 440.443978 360.588226)" fill="#1e3b40" stroke="#1e3b40" stroke-width="3"/><line x1="0" y1="-27.142033" x2="0" y2="27.142033" transform="translate(450.053841 360.588225)" fill="#1e3b40" stroke="#1e3b40" stroke-width="3"/><line x1="-46.554131" y1="0" x2="46.55413" y2="0" transform="translate(404.867575 334.887462)" fill="#1e3b40" stroke="#1e3b40" stroke-width="3"/><line x1="45.16" y1="0" x2="-45.16" y2="0" transform="matrix(1 0 0 0.7 404.893841 360.588225)" fill="#1e3b40" stroke="#1e3b40" stroke-width="3"/><line x1="0" y1="3.660586" x2="0" y2="-3.660586" transform="matrix(-1 0 0 2.660736 406.419556 264.882751)" fill="#be6966" stroke="#be6966" stroke-width="3"/><line x1="0" y1="-27.142033" x2="0" y2="27.142033" transform="matrix(.7 0 0 1 381.205586 360.588226)" fill="#1e3b40" stroke="#1e3b40" stroke-width="3"/><line x1="0" y1="-27.142033" x2="0" y2="27.142033" transform="matrix(-.7 0 0 0.946842 427.66452 360.586679)" fill="#1e3b40" stroke="#1e3b40" stroke-width="3"/><rect width="134.048954" height="10.473854" rx="0" ry="0" transform="translate(335.884273 318.15151)" fill="url(#eZvJtnDk7SW59-fill)" stroke-width="0"/><path d="M219.03706,318.614048c32.366177-65.17259,94.352082-66.849541,123.912363,0" transform="matrix(1 0 0 1.002024 121.953842-1.107413)" fill="#3f5e7a" stroke="#3f5e7a" stroke-width="1.6"/><ellipse rx="7.121948" ry="6.079266" transform="translate(406.419556 255.142899)" fill="#be6966" stroke="#be6966"/><rect width="17.713613" height="37.518506" rx="0" ry="0" transform="matrix(1 0 0 0.396224 395.050532 508.907767)" fill="#002537" stroke-width="0"/><rect width="17.713613" height="37.518506" rx="0" ry="0" transform="matrix(1 0 0 0.396224 395.050546 560.283277)" fill="#002537" stroke-width="0"/><ellipse rx="9.465512" ry="11.149367" transform="matrix(.935693 0 0 1 403.907346 560.283278)" fill="#002537" stroke-width="0"/><line x1="-8.856807" y1="0" x2="8.856807" y2="0" transform="matrix(1 0 0 0.7 403.907353 560.283278)" fill="#fff" stroke="#fff" stroke-width="3"/><rect width="17.713613" height="37.518506" rx="0" ry="0" transform="matrix(1 0 0 0.396224 395.050533 453.812717)" fill="#002537" stroke-width="0"/><ellipse rx="9.465512" ry="11.149367" transform="matrix(.935693 0 0 1 403.907334 453.812717)" fill="#002537" stroke-width="0"/><line x1="-8.856807" y1="0" x2="8.856807" y2="0" transform="matrix(1 0 0 0.7 403.90734 453.812717)" fill="#fff" stroke="#fff" stroke-width="3"/><ellipse rx="9.465512" ry="11.149367" transform="matrix(.935693 0 0 1 403.907332 508.907752)" fill="#002537" stroke-width="0"/><line x1="-8.856807" y1="0" x2="8.856807" y2="0" transform="matrix(1 0 0 0.7 403.907339 508.907752)" fill="#fff" stroke="#fff" stroke-width="3"/><rect width="17.713613" height="37.518506" rx="0" ry="0" transform="matrix(1 0 0 0.396224 395.82789 610.596641)" fill="#002537" stroke-width="0"/><ellipse rx="9.465512" ry="11.149367" transform="matrix(.935693 0 0 1 404.684691 610.596641)" fill="#002537" stroke-width="0"/><line x1="-8.856807" y1="0" x2="8.856807" y2="0" transform="matrix(1 0 0 0.7 404.684697 610.596641)" fill="#fff" stroke="#fff" stroke-width="3"/><line x1="-67.024477" y1="0" x2="67.024477" y2="0" transform="matrix(1.01 0 0 1.4 402.878318 320.147462)" fill="#d1f9ff" stroke="#d1f9ff" stroke-width="3"/><path d="M59.219557,764.61374L37.602209,799.210396h-23.468552l11.489912-19.316123L59.625227,764.61374" transform="translate(121.953843-.462538)" fill="#3f5e7a" stroke="#3f5e7a" stroke-width="1.6"/><path d="" transform="translate(121.953841-.462538)" fill="none" stroke="#3f5787" stroke-width="1.6"/><path d="M13.572772,799.999998L25.62357,781.629889l18.767929-3.444976-1.608808-6.083305-17.696887,7.792663-11.513032,20.105727" transform="translate(121.953843-.462536)" fill="#fff" stroke="#fff" stroke-width="1.6"/><path d="M38.120744,799.210394h14.479087l13.876754-21.53403c-3.052979-5.3456-5.680196-11.763662-6.851356-12.642867L38.626237,799.210394" transform="translate(121.953841-.462536)" fill="#02222f" stroke="#02222f" stroke-width="1.6"/><path d="M58.816643,799.210395l-6.216814.789604l41.432556-62.973646l21.595481-5.164104-1.414711,5.164104-16.807371,3.667063-9.829765,14.502723l14.006142-.557062-2.14867,3.660696-14.324463,3.063192-18.632445,24.687839" transform="translate(121.953843-.462537)" fill="#fff" stroke="#fff" stroke-width="1.6"/><path d="M117.216893,731.387586l-43.08037,67.82281h76.989239l-13.813476-72.794053-20.095393,4.971243Z" transform="translate(121.953842-.462538)" fill="#02222f" stroke="#02222f" stroke-width="1.6"/><path d="M102.234025,753.909745h-13.021724l8.6573-12.135197l13.951847-3.048671-9.587423,15.183868Z" transform="matrix(1.004715 0 0 1 120.396523-.462538)" fill="#41677a" stroke="#41677a" stroke-width="1.6"/><path d="M73.44748,799.210395h-14.630837l7.142578-12.680597l19.675681-24.292541l13.798588-2.79037-26.571002,40.553112" transform="matrix(.964862 0 0 1 123.56828-.462537)" fill="#41677a" stroke="#41677a" stroke-width="1.6"/><path d="M140.885926,736.458496l4.634925-90.082001l29.678468-10.764986-9.362375,101.414845-19.569322,27.587386-5.381696-28.155244Z" transform="translate(121.953846-.462538)" fill="#3f5e7a" stroke="#3f5e7a" stroke-width="1.6"/><path d="M203.078845,624.852907l-28.405611,10.758602-8.836285,100.846987l13.021209-16.66788l21.593981-8.52394l9.00999-47.83326h3.767621v-12.192374h3.629489l1.052491-16.471918-14.832885-9.916217Z" transform="translate(121.953846-.462538)" fill="#012231" stroke="#012231" stroke-width="1.6"/><ellipse rx="2.491976" ry="7.87005" transform="matrix(.401263 0.004519-.001431 0.127056 288.329216 652.607144)" fill="#012231" stroke="#012231"/><ellipse rx="2.491976" ry="7.87005" transform="matrix(.401263 0.004519-.001431 0.127056 288.329216 652.607144)" fill="#012231" stroke="#012231"/><ellipse rx="1" ry="1" transform="translate(269.221468 705.503416)" fill="#012231" stroke-width="0"/><ellipse rx="1" ry="1" transform="translate(268.433841 714.167462)" fill="#012231" stroke-width="0"/><path d="M143.873896,753.224281l9.668034-8.29827l4.500697-8.467515l9.343948-.000003-21.86572,28.155244-1.646959-11.389456Z" transform="translate(121.953842-.462535)" fill="#012231" stroke="#012231" stroke-width="1.6"/><path d="M248.400163,697.098523l-45.321312,29.31782-21.956382,38.617155-32.854843,12.642867-2-4.616771l34.854843-49.763861l67.277694-26.19721Z" transform="translate(121.953842-.462537)" fill="#41677a" stroke="#41677a" stroke-width="1.6"/><path d="M181.122471,764.613741l21.956379-37.194622l8.433995-4.661692l2.417585,30.466853-32.315277,11.809218" transform="translate(121.953844-.462537)" fill="#3f5e7a" stroke="#3f5e7a" stroke-width="1.6"/><path d="M196.110909,760.645708l3.318743-1.19882-5.005772-18.753471l1.687029,19.952291" transform="translate(121.953842-.462536)" fill="#012231" stroke="#012231" stroke-width="1.6"/><path d="M211.705677,664.86294l-9.470128,44.747375l46.812336-15.494372.000001-28.768279h-37.855794" transform="matrix(1 0 0 1.026573 121.306119-18.449105)" fill="#3f5e7a" stroke="#3f5e7a" stroke-width="1.6"/><path d="M234.774102,700.112625l-4.72.873923v-35.945169h3.82264l.463073,35.092625" transform="translate(121.953841-.483917)" fill="#012231" stroke="#012231" stroke-width="1.6"/><path d="M146.48,772.10161l34.642467-48.805876l67.277694-27.322449-68.939463,23.817331-33.193071,46.140509.212373,6.170485Z" transform="translate(121.953844-.462538)" fill="#fff" stroke="#fff" stroke-width="1.6"/><path d="M213.930433,753.224281l-2.417587-30.466853l37.410003-26.784143l12.410719,39.531609-47.403135,17.719387Z" transform="translate(121.953843-.462538)" fill="#012231" stroke="#012231" stroke-width="1.6"/><path d="M248.922851,694.574119v-29.532739l99.056535-.81677-51.704596,44.682987-13.543942,37.410213-10.074211-14.455561-11.323071,3.642644-12.410715-40.930774Z" transform="translate(121.953847-.462537)" fill="#012231" stroke="#012231" stroke-width="1.6"/><path d="M248.400164,665.02v29.55412l28.943603,46.119297-6.61881-75.830477-22.324793.15706Z" transform="translate(121.953841-.462538)" fill="#3f5e7a" stroke="#3f5e7a" stroke-width="1.6"/><path d="M149.860575,784.248946l-1.1-5.04l128.583192-47.82136-3.469718,7.338292-124.013474,45.523068Z" transform="translate(121.953841-.462538)" fill="#fff" stroke="#fff" stroke-width="1.6"/><path d="M153.541931,800l-3.681356-13.949195l124.64299-46.676065l4.390975-9.400003l20.244632,56.555062l4.613551,12.680597L153.541931,800Z" transform="translate(121.953841-.462538)" fill="#012231" stroke="#012231" stroke-width="1.6"/><path d="M286.104204,746.317811l-1.638489-2.422347l11.809082-33.41524l43.824376-37.294331-.78311,7.469812-40.176891,30.610971-13.034968,35.051135Z" transform="translate(121.953841-.462538)" fill="#fff" stroke="#fff" stroke-width="1.6"/><path d="M300.973551,711.847769l28.494313,29.926779l9.848175-59.212568-38.342488,29.285789Z" transform="translate(121.953842-.462536)" fill="#3f5e7a" stroke="#3f5e7a" stroke-width="1.6"/><path d="M329.467865,743.895464l12.889657-75.205861l20.911293-18.082034l8.836361,56.358382l44.724001-22.771741l6.680951,36.841622-29.571103-5.405835-17.673963,83.580396h-71.88434l-18.276519-52.22452l14.008337-33.844191l29.355325,30.753782Z" transform="translate(121.953842-.462535)" fill="#032332" stroke="#032332" stroke-width="1.6"/><path d="" transform="translate(121.953841-.462538)" fill="none" stroke="#3f5787" stroke-width="1.6"/><path d="M233.876742,799.210396l-3.82264-26.150801l18.346061-4.243408.522694-7.453223l13.949109-8.138685l4.32887-9.328815l6.673213-5.16959-123.75405,46.894189l2.586764,13.590333h81.169979Z" transform="translate(121.953842-.462535)" fill="#3f5e7a" stroke="#3f5e7a" stroke-width="1.6"/><path d="M317.862136,777.676364l-6.112711,9.283358-1.255997,12.250675-18.905766-.000002l8.524877-12.680598l17.749597-8.853433Z" transform="translate(121.953845-.462536)" fill="#3f5e7a" stroke="#3f5e7a" stroke-width="1.6"/><path d="M292.130061,799.999998L290.370253,800l9.742287-13.949195l17.749597-8.374441-16.888586,9.283358-9.385891,12.250675" transform="translate(121.953843-.462536)" fill="#fff" stroke="#fff" stroke-width="1.6"/><path d="M320.144796,775.725182l12.257755,10.804616l5.359795,8.460166-26.012918.149012.533015-8.179252l7.862353-11.234542Z" transform="translate(121.953842-.462538)" fill="#01202e" stroke="#032332" stroke-width="1.6"/><path d="M377.418057,800.462538l17.786834-83.002371l18.109751-1.422112-1.777469,6.719373-13.001529.538306-21.117587,77.166804Z" transform="translate(121.953841-.462538)" fill="#fff" stroke="#fff" stroke-width="1.6"/><path d="M411.537173,723.295734L398.95,724.8l-19.551869,74.410399L400,799.210396l11.537173-75.914662Z" transform="translate(121.953841-.462538)" fill="#3f5e7a" stroke="#3f5e7a" stroke-width="1.6"/><path d="M414.685099,714.652549L400,799.210396l61.601832-.000001-9.255761-57.435849-9.255761-14.355429-28.405211-12.766568Z" transform="translate(121.953841-.462535)" fill="#032332" stroke="#032332" stroke-width="1.6"/><ellipse rx="0.455" ry="0.47" transform="translate(511.369165 779.730907)" fill="#02222f" stroke-width="0"/><ellipse rx="0.455" ry="0.47" transform="translate(516.347867 765.938587)" fill="#02222f" stroke="#02222f"/><ellipse rx="2.286477" ry="2.344215" transform="matrix(.2 0 0 0.2 524.240318 735.919125)" fill="#02222f" stroke="#02222f"/><path d="M443.09031,768.968138l18.51152-21.982264l21.118913-8.259997l3.137563-7.338292-24.886909,12.507877-17.881087,24.920723" transform="translate(121.953843-.462536)" fill="#fff" stroke="#fff" stroke-width="1.6"/><path d="M456.164751,755.791567l4.133688,25.838324l21.403648-40.936474-20.100255,6.872756-5.437081,8.225394Z" transform="translate(121.953841-.462538)" fill="#3f5e7a" stroke="#3f5e7a" stroke-width="1.6"/><path d="M461.601832,799.210399l-1.303393-14.961453l26.923283-52.386696l18.42476,55.097475l19.788179-17.991585l17.084878,30.242256-80.917707.000003Z" transform="translate(121.953846-.462538)" fill="#032332" stroke="#032332" stroke-width="1.6"/><path d="M471.693674,753.224284l-1.541422-4.71351-1.994782.5667l3.536204,4.14681Z" transform="translate(121.953841-.462538)" fill="#032332" stroke="#032332" stroke-width="1.6"/><ellipse rx="0.75" ry="0.75" transform="translate(333.761796 780.010906)" fill="#032332" stroke-width="0"/><ellipse rx="0.6" ry="0.6" transform="translate(302.014542 788.975646)" fill="#032332" stroke="#032332"/><ellipse rx="1" ry="1" transform="translate(441.443978 709.44506)" fill="#032332" stroke="#032332"/></svg>
