<svg id="eQikWDYc8xr1" xmlns="http://www.w3.org/2000/svg" xmlns:xlink="http://www.w3.org/1999/xlink" viewBox="0 0 300 300" shape-rendering="geometricPrecision" text-rendering="geometricPrecision"><ellipse rx="50.579284" ry="50.060523" transform="translate(150 138.938614)" fill="#a8acb3" stroke-width="0"/><path d="M123.02438,99.60228c-50.307756,47.851758,16.222328,118.073425,62.25143,64.84524c14.561143-16.838547-.290053-6.905969-6.85644-6.22514-5.46577.566713-11.12937,1.98961-16.48785,4.66885-.78864.39432.87735.08774,0,0-3.02987-.30299-9.15338-2.87366-11.93152-3.63133-5.62464-1.53399-7.2803,1.03432-12.96905,0-.91619-.16658-1.89301-.42432-2.59381-1.03752-2.3586-2.06378-.561977-12.423624-3.63133-14.364147-7.78143-4.919619-4.542912-6.062506-7.78143-15.462175-1.55628-4.51704,6.66553-11.932138,8.30019-17.381008.99514-3.31712-1.50012-5.029-.51876-8.30019.61787-2.05958,5.527577-4.214291,5.70638-5.70638.81095-6.76727-13.76344,3.14098-13.895698,3.074297" transform="translate(-.653294 1.306587)" fill="#98999c" stroke-width="0.6"/><g transform="matrix(.569727 0.346883-.272037 0.446798 136.774174 116.599129)"><ellipse rx="5.387402" ry="5.467826" transform="translate(37.552173 83.410265)" fill="#7d7f83" stroke-width="0"/><path d="M33.179687,86.774481c1.711499.499882,5.666925,1.089812,6.834702,0c1.906759-1.656296,2.081362-4.403291,2.133243-5.998408.600011,1.159572,1.009793,3.418994.286214,4.738459-.633046,1.649911-2.353356,3.245029-4.721675,3.383559-1.321808.203703-3.720867-.62376-4.532484-2.12361Z" transform="translate(.164165 0)" fill="#515151" stroke-width="0.6"/></g><g transform="matrix(.781053-.070964 0.055652 0.612527 132.027222 123.485382)"><ellipse rx="5.387402" ry="5.467826" transform="translate(37.552173 83.410265)" fill="#7d7f83" stroke-width="0"/><path d="M33.179687,86.774481c1.711499.499882,5.666925,1.089812,6.834702,0c1.906759-1.656296,2.081362-4.403291,2.133243-5.998408.600011,1.159572,1.009793,3.418994.286214,4.738459-.633046,1.649911-2.353356,3.245029-4.721675,3.383559-1.321808.203703-3.720867-.62376-4.532484-2.12361Z" transform="translate(.164165 0)" fill="#515151" stroke-width="0.6"/></g><g transform="matrix(.163205 0.646747-.507199 0.127991 154.467547 98.894994)"><ellipse rx="5.387402" ry="5.467826" transform="translate(37.552173 83.410265)" fill="#7d7f83" stroke-width="0"/><path d="M33.179687,86.774481c1.711499.499882,5.666925,1.089812,6.834702,0c1.906759-1.656296,2.081362-4.403291,2.133243-5.998408.600011,1.159572,1.009793,3.418994.286214,4.738459-.633046,1.649911-2.353356,3.245029-4.721675,3.383559-1.321808.203703-3.720867-.62376-4.532484-2.12361Z" transform="translate(.164165 0)" fill="#515151" stroke-width="0.6"/></g><g transform="matrix(-.300979 0.753858-.47836-.190986 170.478114 102.638722)"><ellipse rx="5.387402" ry="5.467826" transform="translate(37.552173 83.410265)" fill="#7d7f83" stroke-width="0"/><path d="M33.179687,86.774481c1.711499.499882,5.666925,1.089812,6.834702,0c1.906759-1.656296,2.081362-4.403291,2.133243-5.998408.600011,1.159572,1.009793,3.418994.286214,4.738459-.633046,1.649911-2.353356,3.245029-4.721675,3.383559-1.321808.203703-3.720867-.62376-4.532484-2.12361Z" transform="translate(.164165 0)" fill="#515151" stroke-width="0.6"/></g><g transform="matrix(.478168 1.696321-1.076396 0.303421 187.171449 58.95923)"><ellipse rx="5.387402" ry="5.467826" transform="translate(37.552173 83.410265)" fill="#7d7f83" stroke-width="0"/><path d="M33.179687,86.774481c1.711499.499882,5.666925,1.089812,6.834702,0c1.906759-1.656296,2.081362-4.403291,2.133243-5.998408.600011,1.159572,1.009793,3.418994.286214,4.738459-.633046,1.649911-2.353356,3.245029-4.721675,3.383559-1.321808.203703-3.720867-.62376-4.532484-2.12361Z" transform="translate(.164165 0)" fill="#515151" stroke-width="0.6"/></g><g transform="matrix(1.326693 0.118918-.075459 0.841851 104.116981 102.031657)"><ellipse rx="5.387402" ry="5.467826" transform="translate(37.552173 83.410265)" fill="#7d7f83" stroke-width="0"/><path d="M33.179687,86.774481c1.711499.499882,5.666925,1.089812,6.834702,0c1.906759-1.656296,2.081362-4.403291,2.133243-5.998408.600011,1.159572,1.009793,3.418994.286214,4.738459-.633046,1.649911-2.353356,3.245029-4.721675,3.383559-1.321808.203703-3.720867-.62376-4.532484-2.12361Z" transform="translate(.164165 0)" fill="#515151" stroke-width="0.6"/></g><g transform="matrix(.289081-.394642 0.2552 0.186938 162.626197 146.993569)"><ellipse rx="5.387402" ry="5.467826" transform="translate(37.552173 83.410265)" fill="#7d7f83" stroke-width="0"/><path d="M33.179687,86.774481c1.711499.499882,5.666925,1.089812,6.834702,0c1.906759-1.656296,2.081362-4.403291,2.133243-5.998408.600011,1.159572,1.009793,3.418994.286214,4.738459-.633046,1.649911-2.353356,3.245029-4.721675,3.383559-1.321808.203703-3.720867-.62376-4.532484-2.12361Z" transform="translate(.164165 0)" fill="#515151" stroke-width="0.6"/></g><g transform="matrix(.393166-.549009 0.355025 0.254247 150.233121 136.057279)"><ellipse rx="5.387402" ry="5.467826" transform="translate(37.552173 83.410265)" fill="#7d7f83" stroke-width="0"/><path d="M33.179687,86.774481c1.711499.499882,5.666925,1.089812,6.834702,0c1.906759-1.656296,2.081362-4.403291,2.133243-5.998408.600011,1.159572,1.009793,3.418994.286214,4.738459-.633046,1.649911-2.353356,3.245029-4.721675,3.383559-1.321808.203703-3.720867-.62376-4.532484-2.12361Z" transform="translate(.164165 0)" fill="#515151" stroke-width="0.6"/></g><g transform="matrix(.808695-1.138102 0.859776 0.610926 81.898595 138.422928)"><ellipse rx="5.387402" ry="5.467826" transform="translate(37.552173 83.410265)" fill="#7d7f83" stroke-width="0"/><path d="M33.179687,86.774481c1.711499.499882,5.666925,1.089812,6.834702,0c1.906759-1.656296,2.081362-4.403291,2.133243-5.998408.600011,1.159572,1.009793,3.418994.286214,4.738459-.633046,1.649911-2.353356,3.245029-4.721675,3.383559-1.321808.203703-3.720867-.62376-4.532484-2.12361Z" transform="translate(.164165 0)" fill="#515151" stroke-width="0.6"/></g></svg>
