<svg id="e9KusDpT8Zq1" xmlns="http://www.w3.org/2000/svg" xmlns:xlink="http://www.w3.org/1999/xlink" viewBox="0 0 300 300" shape-rendering="geometricPrecision" text-rendering="geometricPrecision"><defs><filter id="e9KusDpT8Zq14-filter" x="-150%" width="400%" y="-150%" height="400%"><feGaussianBlur id="e9KusDpT8Zq14-filter-blur-0" stdDeviation="7,7" result="result"/></filter></defs><ellipse rx="80" ry="17.5" transform="matrix(.910512 0.413482-.413482 0.910512 186.618502 137.03066)" fill="#292727" stroke-width="0"/><ellipse rx="93.237196" ry="20.885132" transform="matrix(.910512 0.413482-.413482 0.910512 191.435185 128.472374)" fill="#636363" stroke-width="0"/><ellipse rx="37.294878" ry="41.770264" transform="matrix(.908063 0.418834-.418834 0.908063 216.665637 108.834283)" fill="#636363" stroke-width="0"/><ellipse rx="37.294878" ry="41.770264" transform="matrix(.908063 0.418834-.418834 0.908063 182.79955 94.355446)" fill="#636363" stroke-width="0"/><ellipse rx="5" ry="5" transform="translate(233.036906 152.905837)" fill="#a5a5a5" stroke-width="0"/><ellipse rx="5" ry="5" transform="translate(250.531724 157.905837)" fill="#a5a5a5" stroke-width="0"/><ellipse rx="5" ry="5" transform="translate(216.665636 147.905837)" fill="#a5a5a5" stroke-width="0"/><ellipse rx="37.294878" ry="41.770264" transform="matrix(.908063 0.418834-.504746 1.094325 206.495747 86.055588)" fill="#636363" stroke-width="0"/><ellipse rx="37.294878" ry="41.770264" transform="matrix(.843354 0.388988-.497878 1.079436 203.795587 89.818116)" fill="#d2dbed" stroke-width="0"/><ellipse rx="5" ry="5" transform="translate(148.933463 113.834282)" fill="#a5a5a5" stroke-width="0"/><ellipse rx="5" ry="5" transform="translate(133.11958 106.109555)" fill="#a5a5a5" stroke-width="0"/><ellipse rx="5" ry="5" transform="translate(120.008489 96.675961)" fill="#a5a5a5" stroke-width="0"/><path d="M89.13646,205.98615l-2.18617-3.43852l33.05821-21.01809l2.18617,3.43852-33.05821,21.01809ZM189.1678,263.41743l-4.06782-.23584l2.26738-39.10836l4.06782.23584-2.26738,39.10836ZM90.22955,231.79018l-2.18617-3.43852l33.05821-21.01809l2.18617,3.43852-33.05821,21.01809Zm72.33369,35.91226l-4.06689-.25135l2.4165-39.09943l4.06689.25135-2.4165,39.09943Zm-45.58468-2.08604l-3.43035-2.19896l21.14102-32.97972l3.43035,2.19896-21.14102,32.97972Z" transform="translate(14.379324-44.49888)" filter="url(#e9KusDpT8Zq14-filter)" fill="#6cc0ca" stroke-width="0"/><path d="M32.01681,245.15167c0-7.16523,2.98455-13.56099,7.65623-17.75512-.01716-1.04635-.02606-2.11821-.02606-3.20954c0-6.07398.27571-11.54465.71627-15.37345-.18556.0105-.37259.01583-.56093.01583-5.13221,0-9.2927-3.9551-9.2927-8.83397s4.16048-8.83397,9.2927-8.83397s9.2927,3.9551,9.2927,8.83397c0,3.69225-2.38281,6.85545-5.76633,8.17571.48544,3.84565.79368,9.59351.79368,16.01588c0,.05193-.00002.10381-.00006.15564c2.6239-1.32606,5.54206-2.06518,8.6166-2.06518c2.38289,0,4.67183.44398,6.80266,1.26108-.00264-.41719-.00398-.83767-.00398-1.26108c0-5.2105.20289-9.97704.53869-13.64399-4.19332-.85369-7.33736-4.39684-7.33736-8.63806c0-4.87886,4.16048-8.83397,9.2927-8.83397s9.2927,3.9551,9.2927,8.83397c0,4.40971-3.3988,8.06477-7.84193,8.72694.33096,3.65493.5306,8.3866.5306,13.55511c0,1.24648-.01161,2.46755-.03387,3.65423c5.70581,4.07433,9.48191,11.16037,9.48191,19.21996c0,12.63307-9.2776,22.87419-20.7221,22.87419s-20.7221-10.24112-20.7221-22.87419l-.00002.00001Z" transform="matrix(.89325 0.449559-.449559 0.89325 254.479759-128.25991)" fill="#215c1c" stroke-width="0"/><ellipse rx="16.907012" ry="17.048457" transform="matrix(.406339-.130258 0.126591 0.394898 200.07082 68.171736)" fill="#f8f8fa" stroke-width="0"/><ellipse rx="7.458975" ry="7.810187" transform="matrix(.406339-.130258 0.126591 0.394898 200.07082 68.771134)" stroke-width="0"/><ellipse rx="16.907012" ry="17.048457" transform="matrix(.406339-.130258 0.126591 0.394898 219.500905 77.58996)" fill="#f8f8fa" stroke-width="0"/><ellipse rx="7.458975" ry="7.810187" transform="matrix(.406339-.130258 0.126591 0.394898 217.34273 78.189357)" stroke-width="0"/><path d="M21.718267,124.78682c2.943039,2.873916,7.062503,5.609509,12.231284,6.91561c4.842866,1.223746,9.999201,1.19259,14.225708-1.15547c1.04901-.58279,6.794601-4.58342,6.559251-5.76014-.103678-.518401-8.986751,5.621807-17.302731,5.76014-7.744377.128825-14.724815-5.76014-14.724815-5.76014" transform="matrix(-.861515-.507733 0.507733-.861515 157.249825 245.876285)" stroke="#000" stroke-width="0.6"/><path d="M36.1888,65.96946c-3.16689,4.73192-4.70177,10.68888-5.79412,16.15062-.19585.97924-.25154,4.31334,0,7.2594.19205,2.24935.86545,4.33085,0,4.61934-2.03181.67727-1.71283-4.10386-1.71283-4.61934c0-10.01953,3.14367-23.4256,11.64726-29.80329l.10635.04254c.17197-.13327.36915-.26214.58545-.37923.89851-.48642,1.78676-.58544,1.98396-.22118s-.37133,1.05387-1.26985,1.54029c-.00702.0038-.01405.00758-.02107.01134-2.05818,1.90626-4.081,3.2417-5.52515,5.39952v-.00001Zm8.70499-7.86259c-.15706-.29012.3838-.88703,1.20804-1.33324s1.61974-.57274,1.7768-.28262-.3838.88703-1.20804,1.33324-1.61974.57274-1.7768.28262Z" transform="matrix(.876293 0.481778-.481778 0.876293 201.539945-25.708006)" fill="#fff" stroke="#fff" stroke-width="0.6"/></svg>
