
<svg version="1.1" id="Layer_1" xmlns="http://www.w3.org/2000/svg" xmlns:xlink="http://www.w3.org/1999/xlink" x="0px" y="0px"
	 width="100%" viewBox="0 0 3800 2660" enable-background="new 0 0 3800 2660" xml:space="preserve">
<path fill="#009B3A" opacity="1.000000" stroke="none" 
	d="
M2690.000000,2662.000000 
	C1793.333618,2662.000000 897.667175,2662.000000 2.000601,2662.000000 
	C2.000401,1775.333862 2.000401,888.667725 2.000200,2.001195 
	C1268.665771,2.000797 2535.331543,2.000797 3801.998047,2.000399 
	C3801.998535,888.665527 3801.998535,1775.331055 3801.999268,2661.998291 
	C3431.666748,2662.000000 3061.333252,2662.000000 2690.000000,2662.000000 
M1818.691895,379.714569 
	C1788.638794,398.898621 1758.583618,418.079163 1728.533081,437.267242 
	C1264.296753,733.693787 800.060608,1030.120728 335.834412,1326.563232 
	C333.110352,1328.302612 330.527954,1330.263794 326.956451,1332.768799 
	C853.037903,1668.699707 1378.108765,2003.985352 1903.539062,2339.500488 
	C2429.052490,2003.930908 2954.067871,1668.679443 3480.533447,1332.501953 
	C2954.026855,996.297791 2428.965088,661.016235 1903.562744,325.517181 
	C1875.441528,343.458435 1847.666992,361.178497 1818.691895,379.714569 
z"/>
<path fill="#FEDF00" opacity="1.000000" stroke="none" 
	d="
M1819.292236,379.306580 
	C1847.666992,361.178497 1875.441528,343.458435 1903.562744,325.517181 
	C2428.965088,661.016235 2954.026855,996.297791 3480.533447,1332.501953 
	C2954.067871,1668.679443 2429.052490,2003.930908 1903.539062,2339.500488 
	C1378.108765,2003.985352 853.037903,1668.699707 326.956451,1332.768799 
	C330.527954,1330.263794 333.110352,1328.302612 335.834412,1326.563232 
	C800.060608,1030.120728 1264.296753,733.693787 1728.533081,437.267242 
	C1758.583618,418.079163 1788.638794,398.898621 1819.292236,379.306580 
M2562.085205,1423.025635 
	C2562.614990,1419.738403 2563.278076,1416.466309 2563.655029,1413.161621 
	C2569.490967,1362.006348 2570.043457,1310.853027 2564.384766,1259.610718 
	C2557.953369,1201.370972 2544.310791,1144.934204 2522.777832,1090.477051 
	C2429.852295,855.469971 2218.695312,695.722046 1967.081787,670.528076 
	C1898.338257,663.644836 1829.842163,667.178467 1762.470703,682.749451 
	C1570.567993,727.102295 1424.596191,834.454773 1325.218506,1004.591492 
	C1314.184570,1023.481567 1305.641968,1043.826660 1294.960449,1064.558594 
	C1292.952393,1069.126709 1290.823120,1073.645874 1288.956177,1078.270996 
	C1277.494507,1106.668091 1266.948975,1135.370972 1259.673706,1166.842651 
	C1249.417358,1204.559326 1243.384521,1243.021729 1240.384277,1281.917725 
	C1234.673218,1355.959229 1241.320435,1428.994141 1260.177612,1500.817749 
	C1331.735718,1773.370728 1566.901489,1973.165161 1853.299805,1995.654297 
	C1919.187378,2000.828125 1984.479736,1995.982788 2048.920410,1981.427002 
	C2254.892090,1934.902954 2424.507568,1796.041504 2510.774902,1602.868042 
	C2521.319092,1579.257080 2528.935547,1554.338379 2538.707275,1528.773438 
	C2543.616455,1510.472900 2549.136719,1492.308350 2553.250244,1473.830566 
	C2556.854004,1457.643066 2558.877441,1441.103638 2562.085205,1423.025635 
z"/>
<path fill="#012876" opacity="1.000000" stroke="none" 
	d="
M2537.908447,1530.025635 
	C2528.935547,1554.338379 2521.319092,1579.257080 2510.774902,1602.868042 
	C2424.507568,1796.041504 2254.892090,1934.902954 2048.920410,1981.427002 
	C1984.479736,1995.982788 1919.187378,2000.828125 1853.299805,1995.654297 
	C1566.901489,1973.165161 1331.735718,1773.370728 1260.177612,1500.817749 
	C1241.320435,1428.994141 1234.673218,1355.959229 1240.384277,1281.917725 
	C1243.384521,1243.021729 1249.417358,1204.559326 1260.748047,1166.054199 
	C1323.217773,1154.386719 1385.090942,1147.624634 1447.331299,1144.368530 
	C1531.029541,1139.990234 1614.545532,1142.905884 1697.781494,1152.483643 
	C1765.969482,1160.329834 1833.346069,1172.780518 1899.858398,1189.874268 
	C2103.499023,1242.209961 2288.503418,1332.683105 2454.705078,1461.396240 
	C2483.115967,1483.398926 2510.207520,1507.105835 2537.908447,1530.025635 
M2355.095703,1566.387939 
	C2359.020508,1568.454102 2358.427490,1571.576538 2357.238281,1574.977783 
	C2355.922363,1578.741821 2354.808838,1582.576538 2353.607178,1586.380493 
	C2354.147705,1586.596313 2354.687988,1586.812012 2355.228516,1587.027832 
	C2359.837158,1583.844482 2364.445801,1580.661133 2369.389648,1577.246094 
	C2374.455566,1580.655273 2379.362305,1583.957520 2385.765381,1588.266846 
	C2383.632324,1581.128418 2381.966553,1575.553833 2380.166992,1569.531372 
	C2384.849365,1565.881836 2389.430908,1562.311157 2396.061279,1557.143555 
	C2387.881592,1557.143555 2382.096436,1557.143555 2376.431396,1557.143555 
	C2373.964111,1550.668579 2371.877686,1545.192993 2369.295410,1538.416260 
	C2366.809326,1545.395386 2364.854980,1550.882812 2362.838623,1556.543579 
	C2356.734863,1556.941528 2351.050781,1557.312012 2343.431396,1557.808716 
	C2348.062744,1561.261597 2350.960449,1563.421875 2355.095703,1566.387939 
M1638.217163,1661.698730 
	C1637.841064,1660.862793 1637.464844,1660.026978 1636.625366,1658.161255 
	C1634.100464,1664.714844 1631.892578,1670.445679 1629.861450,1675.717651 
	C1623.517822,1677.178833 1617.613647,1675.098633 1611.152344,1677.578857 
	C1616.752441,1681.879395 1621.402100,1685.450195 1625.768066,1688.802979 
	C1624.023071,1695.116089 1622.526855,1700.529053 1620.531250,1707.748901 
	C1627.145020,1703.204712 1631.978027,1699.883911 1636.676025,1696.656006 
	C1641.846802,1700.217041 1646.398071,1703.351440 1652.663452,1707.666260 
	C1650.607422,1700.040283 1649.097534,1694.440063 1647.557007,1688.725952 
	C1652.437256,1684.916748 1656.905884,1681.428833 1661.374512,1677.941040 
	C1661.069336,1677.300903 1660.764160,1676.660889 1660.458984,1676.020752 
	C1654.625488,1676.020752 1648.791992,1676.020752 1643.099487,1676.020752 
	C1641.423218,1671.181274 1640.020630,1667.131470 1638.217163,1661.698730 
M1364.588135,1196.688965 
	C1363.484375,1193.463501 1362.380493,1190.238037 1360.748047,1185.468262 
	C1358.101685,1192.559448 1356.046387,1198.066650 1353.720215,1204.299927 
	C1347.904419,1204.299927 1342.158691,1204.299927 1334.350220,1204.299927 
	C1340.743652,1209.459473 1345.462646,1213.267700 1349.782593,1216.753906 
	C1348.052124,1222.981934 1346.602905,1228.197632 1344.584717,1235.461182 
	C1351.227905,1230.881104 1356.012817,1227.582153 1360.658691,1224.379150 
	C1365.940308,1227.951416 1370.637451,1231.128418 1376.895630,1235.361084 
	C1374.670776,1227.623169 1373.062378,1222.029419 1371.606689,1216.966553 
	C1375.806152,1211.756226 1382.235962,1210.283813 1385.430786,1204.062622 
	C1380.129761,1204.062622 1375.822998,1203.813232 1371.558350,1204.130371 
	C1367.001587,1204.469482 1366.036621,1201.516602 1364.588135,1196.688965 
M1889.805908,1644.538208 
	C1889.226562,1646.896851 1888.647217,1649.255615 1887.686890,1653.165894 
	C1893.989014,1648.901855 1898.822388,1645.631470 1903.630371,1642.378418 
	C1908.771729,1645.906494 1913.370239,1649.061890 1917.968628,1652.217285 
	C1918.352661,1651.763916 1918.736694,1651.310425 1919.120728,1650.856934 
	C1917.513916,1645.575928 1915.906982,1640.294922 1914.217773,1634.743164 
	C1919.118896,1630.858398 1923.747437,1627.189575 1928.375977,1623.520752 
	C1928.047974,1622.995728 1927.719971,1622.470581 1927.392090,1621.945557 
	C1921.792603,1621.945557 1916.192993,1621.945557 1910.380981,1621.945557 
	C1908.081665,1616.016846 1905.905273,1610.405273 1903.284546,1603.647583 
	C1900.783325,1610.681885 1898.818970,1616.206055 1896.564087,1622.547729 
	C1890.565430,1622.547729 1884.893921,1622.547729 1877.232544,1622.547729 
	C1883.622803,1627.530762 1888.214233,1631.111084 1892.792114,1634.680786 
	C1891.755127,1637.995483 1890.969727,1640.506104 1889.805908,1644.538208 
M1423.429199,1475.854492 
	C1422.167236,1472.779053 1420.905273,1469.703613 1419.191772,1465.527588 
	C1416.651855,1472.591309 1414.668335,1478.107788 1412.844971,1483.178589 
	C1406.509888,1484.825073 1400.524048,1482.423340 1394.438965,1485.198486 
	C1399.659546,1489.163208 1404.089111,1492.527100 1408.664307,1496.001709 
	C1406.907715,1502.127197 1405.320068,1507.663696 1403.235840,1514.932007 
	C1409.827026,1510.502808 1414.688965,1507.235718 1419.597412,1503.937256 
	C1424.672852,1507.461426 1429.308228,1510.680054 1435.882324,1515.244995 
	C1433.509277,1507.397827 1431.906860,1502.098877 1430.182007,1496.395020 
	C1434.777100,1492.692261 1439.261597,1489.078613 1443.746216,1485.464844 
	C1439.478516,1483.814209 1435.629395,1483.449707 1431.878784,1483.902344 
	C1426.643555,1484.534180 1424.668457,1481.836426 1423.429199,1475.854492 
M2407.484863,1641.575317 
	C2407.814941,1641.602539 2408.152100,1641.681641 2408.473145,1641.639648 
	C2408.705322,1641.609253 2409.122314,1641.369995 2409.107178,1641.304688 
	C2408.084473,1636.867310 2407.026367,1632.437988 2405.898438,1627.702026 
	C2409.506592,1624.714722 2413.029297,1621.798096 2417.807373,1617.842163 
	C2411.408203,1617.516724 2406.908691,1617.287842 2402.342773,1617.055664 
	C2400.488770,1612.141235 2398.837891,1607.764893 2396.724121,1602.161621 
	C2394.378906,1607.974365 2392.559082,1612.484863 2390.724365,1617.032227 
	C2385.817871,1617.346924 2381.303467,1617.636475 2375.549316,1618.005371 
	C2380.297607,1621.946411 2383.984131,1625.006348 2387.439697,1627.874512 
	C2386.059814,1632.939331 2384.878174,1637.276367 2383.278320,1643.148560 
	C2388.743408,1639.551147 2392.798828,1636.881836 2396.804443,1634.245239 
	C2400.172852,1636.607788 2403.153320,1638.698242 2407.484863,1641.575317 
M1545.868530,1575.517334 
	C1550.060425,1573.121216 1554.252197,1570.725220 1558.245483,1568.442627 
	C1562.208862,1571.053345 1565.748535,1573.385010 1570.519287,1576.527588 
	C1569.285889,1570.524780 1568.326782,1565.856445 1567.408936,1561.389526 
	C1571.236938,1558.252808 1574.574463,1555.517822 1579.024780,1551.871216 
	C1572.760864,1551.530029 1568.213379,1551.282227 1563.584717,1551.030151 
	C1561.743408,1546.249268 1560.081177,1541.933594 1557.829346,1536.087036 
	C1555.395996,1542.456665 1553.767944,1546.718506 1552.114380,1551.046997 
	C1547.093018,1551.371338 1542.582520,1551.662720 1536.788086,1552.037109 
	C1541.406372,1555.760132 1544.927124,1558.598389 1548.694336,1561.635254 
	C1547.525513,1565.981201 1546.414673,1570.111572 1545.868530,1575.517334 
M2359.831055,1665.842407 
	C2358.685303,1662.927856 2357.539551,1660.013306 2355.788574,1655.559204 
	C2353.493164,1661.566040 2351.886719,1665.770386 2350.239990,1670.079468 
	C2345.202881,1670.389160 2340.557373,1670.674683 2334.206543,1671.065186 
	C2339.367676,1675.240601 2342.921631,1678.115845 2346.569092,1681.066650 
	C2345.364014,1685.934937 2344.238037,1690.482422 2342.723633,1696.599243 
	C2348.062988,1692.981323 2351.842773,1690.420288 2355.858887,1687.698975 
	C2359.973389,1690.395874 2363.865234,1692.947021 2369.172852,1696.426147 
	C2367.522949,1690.049194 2366.379395,1685.629761 2365.208740,1681.104980 
	C2369.080078,1677.895386 2372.717285,1674.879639 2378.081299,1670.432495 
	C2371.923340,1670.432495 2368.286133,1670.740112 2364.743896,1670.293579 
	C2363.143066,1670.091675 2361.730957,1668.389404 2359.831055,1665.842407 
M2248.534180,1777.371460 
	C2247.594727,1773.916138 2246.655273,1770.460815 2245.753662,1767.145386 
	C2249.788574,1763.713013 2253.347656,1760.685547 2256.906738,1757.657959 
	C2256.591064,1757.139648 2256.275146,1756.621338 2255.959473,1756.103027 
	C2251.364014,1756.103027 2246.768555,1756.103027 2242.051270,1756.103027 
	C2240.307617,1751.372559 2238.731445,1747.096436 2236.595703,1741.301880 
	C2234.363525,1747.021240 2232.616211,1751.497803 2230.864746,1755.985596 
	C2225.727539,1756.313477 2221.064697,1756.611206 2214.690430,1757.018066 
	C2219.997070,1761.272949 2223.769287,1764.297729 2227.283691,1767.115601 
	C2225.923096,1772.279053 2224.793945,1776.562988 2223.258545,1782.388916 
	C2228.770508,1778.805542 2232.628662,1776.297119 2236.473633,1773.797241 
	C2240.733887,1776.490112 2244.667725,1778.976685 2249.040283,1781.740723 
	C2249.040283,1779.977295 2249.040283,1779.346313 2248.534180,1777.371460 
M2116.229492,1779.638916 
	C2118.316162,1777.886963 2120.402832,1776.134888 2123.652832,1773.406128 
	C2117.332520,1773.008301 2112.846191,1772.725952 2108.195068,1772.433105 
	C2106.416748,1767.750122 2104.776855,1763.432129 2102.652832,1757.839233 
	C2100.278809,1763.708984 2098.469727,1768.181763 2096.743896,1772.448608 
	C2091.659912,1772.853638 2087.274658,1773.202881 2081.440186,1773.667725 
	C2086.387939,1777.678223 2089.922852,1780.543701 2093.419189,1783.377808 
	C2092.118408,1788.214478 2090.946045,1792.573853 2089.377441,1798.405762 
	C2094.807861,1795.003296 2098.843750,1792.474609 2102.791992,1790.000854 
	C2106.972656,1792.793091 2110.737305,1795.307495 2115.976807,1798.807129 
	C2114.487061,1793.806030 2113.613281,1790.383545 2112.437012,1787.068481 
	C2111.335938,1783.965454 2112.560547,1781.999634 2116.229492,1779.638916 
M1341.872803,1539.927002 
	C1340.744873,1537.084106 1339.616943,1534.241333 1337.896362,1529.904419 
	C1335.582153,1536.016113 1333.984985,1540.234253 1332.393311,1544.437866 
	C1327.339478,1544.812378 1322.892578,1545.141724 1316.971924,1545.580444 
	C1321.791016,1549.595825 1325.268311,1552.493286 1328.794189,1555.431152 
	C1327.544434,1560.284058 1326.407837,1564.697510 1324.914551,1570.495850 
	C1330.164917,1567.122925 1334.227905,1564.512695 1338.152588,1561.991333 
	C1342.373291,1564.755981 1346.129761,1567.216431 1351.099609,1570.471802 
	C1349.607666,1564.297363 1348.476074,1559.614258 1347.427002,1555.272705 
	C1351.422729,1551.927612 1354.770142,1549.125244 1359.824463,1544.893799 
	C1354.113647,1544.893799 1350.790405,1545.295410 1347.633423,1544.744507 
	C1345.714111,1544.409546 1344.051147,1542.604248 1341.872803,1539.927002 
M1640.126343,1366.220215 
	C1639.223755,1369.623291 1638.321167,1373.026489 1636.990601,1378.043091 
	C1642.433594,1374.417603 1646.443481,1371.746704 1650.207031,1369.239990 
	C1654.718384,1372.181030 1658.446289,1374.611450 1663.457520,1377.878540 
	C1661.811646,1371.606445 1660.590454,1366.952759 1659.449951,1362.606567 
	C1663.544678,1359.198608 1666.964111,1356.352661 1671.537109,1352.546631 
	C1665.028564,1352.171265 1660.258057,1351.896240 1655.729126,1351.635132 
	C1653.893188,1346.859741 1652.348755,1342.842773 1650.136230,1337.087646 
	C1647.789551,1343.229370 1646.181274,1347.438721 1644.557495,1351.688477 
	C1639.528687,1352.027100 1634.900024,1352.338745 1629.994507,1352.668945 
	C1632.633667,1358.409790 1640.263916,1358.223267 1640.126343,1366.220215 
M1918.246582,1437.770630 
	C1919.990479,1436.181030 1921.734253,1434.591431 1924.369141,1432.189453 
	C1918.181274,1431.892456 1913.599609,1431.672607 1909.295898,1431.466064 
	C1907.238037,1426.495850 1905.433960,1422.138672 1903.255371,1416.876831 
	C1901.054199,1422.731567 1899.343994,1427.280518 1897.771606,1431.462769 
	C1892.447754,1431.801147 1888.077148,1432.078857 1882.248413,1432.449341 
	C1887.144043,1436.433350 1890.657227,1439.292358 1894.275269,1442.236572 
	C1892.980347,1447.214111 1891.775513,1451.845703 1890.305542,1457.496460 
	C1895.481567,1454.183838 1899.583130,1451.558716 1903.563721,1449.011230 
	C1907.787598,1451.637329 1911.481079,1453.933594 1916.721558,1457.191895 
	C1915.387695,1452.371216 1914.973633,1449.384644 1913.746338,1446.781616 
	C1911.814331,1442.683594 1913.969849,1440.607300 1918.246582,1437.770630 
M1994.139404,1491.683350 
	C1991.525269,1491.563477 1988.911011,1491.443604 1986.038452,1491.311890 
	C1984.325439,1486.661255 1982.703613,1482.257935 1980.550537,1476.412476 
	C1978.132812,1482.439209 1976.330078,1486.932983 1974.586060,1491.280518 
	C1969.626587,1491.619873 1965.258911,1491.918823 1959.433838,1492.317505 
	C1964.258911,1496.293091 1967.756226,1499.174805 1971.338135,1502.126099 
	C1970.005127,1506.876831 1968.783813,1511.229736 1967.077393,1517.311035 
	C1972.637695,1513.700806 1976.685913,1511.072266 1980.559326,1508.557373 
	C1984.716919,1511.333008 1988.428345,1513.810791 1993.907349,1517.468750 
	C1992.070435,1510.965576 1990.838501,1506.604492 1989.543335,1502.019043 
	C1993.337158,1498.878662 1996.878174,1495.947510 2001.618408,1492.023682 
	C1998.266113,1491.833374 1996.950439,1491.758667 1994.139404,1491.683350 
M1529.312378,1618.573853 
	C1527.196899,1618.573853 1525.081421,1618.573853 1520.636963,1618.573853 
	C1525.070068,1622.557251 1527.640869,1624.867310 1530.342651,1627.295166 
	C1529.459106,1630.876343 1528.617310,1634.288208 1527.428467,1639.105957 
	C1531.946411,1636.459839 1535.187988,1634.561279 1538.141357,1632.831543 
	C1541.578491,1634.862915 1544.487793,1636.582275 1548.407349,1638.898682 
	C1547.280029,1634.014282 1546.483154,1630.561157 1545.725952,1627.280029 
	C1548.527344,1624.673584 1551.026978,1622.347900 1554.485107,1619.130493 
	C1549.443726,1618.682251 1545.983521,1618.374512 1542.685669,1618.081299 
	C1541.108765,1614.487061 1539.741577,1611.371094 1538.297974,1608.080811 
	C1534.291626,1611.247681 1536.520630,1617.595703 1529.312378,1618.573853 
M2236.380859,1687.687134 
	C2235.494629,1685.899536 2234.608154,1684.112061 2233.363525,1681.601685 
	C2231.533203,1686.043579 2230.181885,1689.323242 2228.972412,1692.259033 
	C2224.864990,1692.729614 2221.497070,1693.115479 2216.975830,1693.633423 
	C2220.819336,1696.910522 2223.504883,1699.200562 2226.071045,1701.388672 
	C2225.233154,1705.291260 2224.504395,1708.685791 2223.529785,1713.224854 
	C2227.718018,1710.685791 2230.748779,1708.848389 2233.751465,1707.027954 
	C2237.054932,1708.912231 2240.030273,1710.609375 2243.944092,1712.841675 
	C2242.986328,1708.227783 2242.271973,1704.785767 2241.567383,1701.391724 
	C2244.339111,1698.857300 2246.835693,1696.574463 2249.710693,1693.945557 
	C2244.951904,1691.422852 2238.933105,1695.285034 2236.380859,1687.687134 
M2073.509521,1298.444946 
	C2075.925537,1300.047485 2077.281738,1301.944702 2076.145264,1305.090332 
	C2075.332031,1307.341797 2075.012939,1309.771851 2074.246826,1313.107300 
	C2078.431396,1310.658203 2081.514404,1308.853638 2084.488525,1307.113037 
	C2087.790771,1308.976807 2090.740723,1310.641846 2094.769043,1312.915527 
	C2093.656982,1308.077148 2092.867920,1304.643921 2092.135986,1301.459106 
	C2095.007324,1298.860718 2097.490967,1296.613281 2100.634277,1293.768921 
	C2095.790039,1293.184814 2092.284424,1292.762207 2089.035400,1292.370605 
	C2087.527588,1288.763794 2086.267334,1285.749023 2084.548096,1281.636719 
	C2082.429688,1286.273682 2080.957520,1289.496582 2079.590088,1292.489990 
	C2075.813721,1293.029785 2072.509521,1293.502075 2068.185303,1294.120117 
	C2070.298584,1295.936035 2071.293701,1296.791382 2073.509521,1298.444946 
M2225.999268,1840.900391 
	C2225.999268,1841.996460 2225.999268,1843.092529 2225.999268,1844.776733 
	C2229.903320,1842.513916 2232.953125,1840.746216 2235.674561,1839.168823 
	C2239.192871,1841.119751 2242.082275,1842.721924 2245.648193,1844.699341 
	C2244.708252,1840.012207 2244.013428,1836.547607 2243.359619,1833.287109 
	C2246.173096,1830.839600 2248.530518,1828.788696 2252.070557,1825.708862 
	C2247.096924,1825.250610 2243.648682,1824.932983 2240.458252,1824.639038 
	C2238.670410,1820.855469 2237.169678,1817.679077 2235.313232,1813.750488 
	C2233.561035,1818.006226 2232.219482,1821.264648 2230.856689,1824.574829 
	C2227.074463,1824.975464 2223.607666,1825.342651 2219.145752,1825.815308 
	C2223.232910,1830.466675 2231.158203,1832.153687 2225.999268,1840.900391 
M1841.491333,1492.288574 
	C1839.994019,1489.123535 1838.496704,1485.958496 1836.659790,1482.075439 
	C1834.728394,1486.029907 1833.042480,1489.481567 1831.482056,1492.676392 
	C1827.765503,1493.035156 1824.613159,1493.339355 1820.362061,1493.749634 
	C1823.954834,1497.052490 1826.519775,1499.410400 1828.842896,1501.546021 
	C1828.088257,1505.411377 1827.452637,1508.666992 1826.632446,1512.868164 
	C1830.889160,1510.406738 1833.956665,1508.633057 1836.799438,1506.989258 
	C1840.079224,1509.021973 1842.789673,1510.701660 1846.972412,1513.293823 
	C1845.716431,1508.270020 1844.866089,1504.869141 1844.004395,1501.422363 
	C1846.841553,1499.013184 1849.463379,1496.786743 1853.310547,1493.519897 
	C1848.704346,1493.239258 1845.804932,1493.062622 1841.491333,1492.288574 
M2052.289551,1714.325317 
	C2054.597168,1715.694946 2056.904541,1717.064453 2060.166992,1719.000732 
	C2059.189209,1714.056763 2058.508057,1710.613281 2057.843262,1707.251587 
	C2060.839111,1704.920288 2063.372070,1702.948975 2067.187500,1699.979858 
	C2062.167480,1699.575928 2058.648438,1699.292725 2054.880859,1698.989502 
	C2053.470703,1695.722290 2052.092041,1692.527954 2050.083740,1687.874878 
	C2048.133545,1692.390869 2046.753296,1695.587036 2045.366943,1698.797241 
	C2041.615356,1699.265869 2038.124268,1699.701904 2033.908691,1700.228516 
	C2037.228638,1703.205200 2039.850952,1705.556396 2042.313110,1707.764160 
	C2041.570435,1711.638916 2040.936523,1714.945923 2040.212891,1718.721313 
	C2044.357056,1716.746582 2047.588745,1715.206787 2052.289551,1714.325317 
M2153.496338,1733.450317 
	C2155.651123,1732.106567 2157.806152,1730.762939 2159.687988,1729.589233 
	C2163.235352,1731.699951 2166.142578,1733.429443 2170.086182,1735.775879 
	C2168.856201,1731.063477 2167.963379,1727.642456 2167.018799,1724.023560 
	C2169.995361,1721.573853 2172.656494,1719.383423 2176.590332,1716.145630 
	C2171.454346,1715.809448 2168.002197,1715.583618 2164.473877,1715.352661 
	C2162.736816,1711.620972 2161.131592,1708.171875 2159.208008,1704.039307 
	C2157.565430,1708.395264 2156.304688,1711.738159 2155.045898,1715.076416 
	C2151.257324,1715.524292 2147.859375,1715.926147 2143.350098,1716.459229 
	C2146.861572,1719.576294 2149.490479,1721.910034 2152.100098,1724.226685 
	C2151.228271,1727.513672 2150.438721,1730.358521 2149.832275,1733.241943 
	C2149.807129,1733.362061 2151.494141,1733.842285 2153.496338,1733.450317 
M2464.085938,1560.044434 
	C2463.421143,1558.649658 2462.756592,1557.254883 2461.493652,1554.604614 
	C2459.775879,1559.164917 2458.560547,1562.391846 2457.263184,1565.835815 
	C2453.421631,1566.038330 2449.901855,1566.223877 2444.851318,1566.489990 
	C2448.687744,1569.958862 2451.495117,1572.497192 2454.077881,1574.832397 
	C2453.288086,1578.757324 2452.620117,1582.077759 2451.753418,1586.386841 
	C2456.121582,1583.751343 2459.169189,1581.912598 2461.855713,1580.291626 
	C2465.341064,1582.318481 2468.206787,1583.985107 2471.887451,1586.125610 
	C2470.894043,1581.276855 2470.187256,1577.826416 2469.549805,1574.714844 
	C2472.526855,1571.935303 2475.014893,1569.612305 2477.845703,1566.969238 
	C2472.566895,1564.961914 2466.172607,1568.833496 2464.085938,1560.044434 
M2310.831543,1713.215942 
	C2313.231934,1711.147217 2315.632324,1709.078491 2318.822754,1706.328857 
	C2314.011719,1705.815430 2310.456055,1705.435913 2307.011230,1705.068359 
	C2305.616943,1701.465332 2304.371338,1698.245850 2302.705078,1693.940186 
	C2300.656982,1698.487671 2299.081055,1701.986694 2297.558350,1705.367920 
	C2293.769775,1705.626709 2290.507812,1705.849487 2286.170166,1706.145874 
	C2289.633545,1709.446045 2292.389893,1712.072510 2294.889893,1714.454834 
	C2293.960938,1718.365601 2293.185303,1721.631348 2292.171387,1725.900757 
	C2296.405762,1723.318848 2299.480957,1721.443726 2302.513428,1719.594849 
	C2305.788086,1721.503296 2308.768311,1723.240356 2312.787842,1725.582886 
	C2311.717285,1721.065186 2310.964111,1717.886353 2310.831543,1713.215942 
M1860.818848,1540.551758 
	C1860.498535,1540.643555 1860.124390,1540.663818 1859.875488,1540.850708 
	C1859.689331,1540.990479 1859.508423,1541.499023 1859.590454,1541.582397 
	C1863.054688,1545.106934 1865.208740,1549.064331 1863.490234,1552.923828 
	C1868.132568,1552.923828 1872.297852,1552.923828 1875.634399,1552.923828 
	C1876.934326,1549.206421 1878.319702,1545.244385 1879.844727,1540.883423 
	C1878.497803,1540.673096 1875.949463,1540.956177 1874.371948,1539.851929 
	C1872.507935,1538.547363 1871.483154,1536.044067 1869.708374,1533.508789 
	C1867.641846,1536.953003 1867.316040,1541.657471 1860.818848,1540.551758 
M1491.476562,1447.670898 
	C1486.189453,1448.340088 1487.318970,1442.684570 1484.206665,1440.272583 
	C1483.084473,1445.843262 1479.284668,1448.245850 1475.433350,1448.530762 
	C1476.825684,1452.662598 1478.085205,1456.400635 1479.113281,1459.451660 
	C1483.122192,1459.451660 1487.242310,1459.451660 1491.747437,1459.451660 
	C1489.599731,1456.059814 1489.906982,1452.963745 1493.823975,1450.477905 
	C1496.321045,1448.893311 1494.660156,1448.073364 1491.476562,1447.670898 
M1907.995972,1856.097290 
	C1908.632812,1854.351318 1909.269531,1852.605225 1909.927002,1850.802612 
	C1907.643555,1849.142822 1905.184326,1847.355347 1903.201538,1845.914062 
	C1900.924072,1847.863403 1898.880371,1849.612793 1897.344604,1850.927246 
	C1898.147217,1853.552246 1898.863281,1855.894287 1899.610962,1858.339722 
	C1902.322632,1858.073364 1905.081665,1857.802368 1907.995972,1856.097290 
z"/>
<path fill="#012776" opacity="1.000000" stroke="none" 
	d="
M1295.943970,1063.497070 
	C1305.641968,1043.826660 1314.184570,1023.481567 1325.218506,1004.591492 
	C1424.596191,834.454773 1570.567993,727.102295 1762.470703,682.749451 
	C1829.842163,667.178467 1898.338257,663.644836 1967.081787,670.528076 
	C2218.695312,695.722046 2429.852295,855.469971 2522.777832,1090.477051 
	C2544.310791,1144.934204 2557.953369,1201.370972 2564.384766,1259.610718 
	C2570.043457,1310.853027 2569.490967,1362.006348 2563.655029,1413.161621 
	C2563.278076,1416.466309 2562.614990,1419.738403 2561.235352,1423.562500 
	C2559.327393,1423.291260 2558.238525,1422.519897 2557.215332,1421.670044 
	C2387.498535,1280.727051 2197.001465,1178.480347 1985.720581,1115.042358 
	C1898.852295,1088.959717 1810.362549,1070.556641 1720.304810,1059.570557 
	C1670.342163,1053.475952 1620.234009,1049.554199 1569.941772,1048.161011 
	C1478.192505,1045.619507 1386.845093,1050.677124 1295.943970,1063.497070 
M2097.359863,1117.525024 
	C2093.442627,1117.525024 2089.525391,1117.525024 2083.450195,1117.525024 
	C2089.797363,1122.536743 2094.340332,1126.123901 2099.042725,1129.837036 
	C2097.221680,1135.930420 2095.564697,1141.473877 2093.419434,1148.652466 
	C2099.980713,1144.233398 2104.881104,1140.933105 2109.969727,1137.505859 
	C2115.124023,1141.095581 2119.926514,1144.440063 2126.176270,1148.792603 
	C2123.980469,1141.403809 2122.306152,1135.769409 2120.552246,1129.866699 
	C2125.306641,1126.081909 2129.800781,1122.504517 2135.862549,1117.678955 
	C2128.299316,1117.678955 2122.742920,1117.678955 2117.023926,1117.678955 
	C2114.552490,1111.526978 2112.313721,1105.953979 2109.478760,1098.896729 
	C2107.302002,1105.234985 2106.104736,1109.778198 2104.125977,1113.950806 
	C2103.357910,1115.570312 2100.822754,1116.351929 2097.359863,1117.525024 
z"/>
<path fill="#F9FCFB" opacity="1.000000" stroke="none" 
	d="
M1295.452148,1064.027832 
	C1386.845093,1050.677124 1478.192505,1045.619507 1569.941772,1048.161011 
	C1620.234009,1049.554199 1670.342163,1053.475952 1720.304810,1059.570557 
	C1810.362549,1070.556641 1898.852295,1088.959717 1985.720581,1115.042358 
	C2197.001465,1178.480347 2387.498535,1280.727051 2557.215332,1421.670044 
	C2558.238525,1422.519897 2559.327393,1423.291260 2560.992188,1424.409424 
	C2558.877441,1441.103638 2556.854004,1457.643066 2553.250244,1473.830566 
	C2549.136719,1492.308350 2543.616455,1510.472900 2538.307861,1529.399536 
	C2510.207520,1507.105835 2483.115967,1483.398926 2454.705078,1461.396240 
	C2288.503418,1332.683105 2103.499023,1242.209961 1899.858398,1189.874268 
	C1833.346069,1172.780518 1765.969482,1160.329834 1697.781494,1152.483643 
	C1614.545532,1142.905884 1531.029541,1139.990234 1447.331299,1144.368530 
	C1385.090942,1147.624634 1323.217773,1154.386719 1261.048828,1165.306152 
	C1266.948975,1135.370972 1277.494507,1106.668091 1288.956177,1078.270996 
	C1290.823120,1073.645874 1292.952393,1069.126709 1295.452148,1064.027832 
M1653.770020,1085.311890 
	C1652.449463,1079.609375 1651.128784,1073.906738 1649.800171,1068.169189 
	C1644.239258,1067.862793 1639.698608,1067.612549 1634.411255,1067.321167 
	C1632.602295,1088.545532 1630.866821,1108.909302 1629.089844,1129.757812 
	C1633.517334,1129.757812 1636.590088,1129.757812 1639.666870,1129.757812 
	C1640.368652,1123.435791 1640.844238,1117.799805 1641.657715,1112.213135 
	C1642.424438,1106.948120 1641.026855,1101.254517 1644.724487,1094.564697 
	C1647.520630,1108.021118 1649.935425,1119.642456 1652.472046,1131.849365 
	C1655.935181,1132.063232 1659.087158,1132.257812 1662.341553,1132.458740 
	C1667.194946,1120.418457 1671.765137,1109.080688 1676.335327,1097.742920 
	C1676.857544,1097.937378 1677.379761,1098.131714 1677.901855,1098.326172 
	C1677.006714,1109.862549 1676.111572,1121.399048 1675.147339,1133.826538 
	C1679.006348,1134.026001 1682.080933,1134.184937 1685.825562,1134.378540 
	C1687.638428,1113.171387 1689.378418,1092.814819 1691.146118,1072.135132 
	C1685.347656,1071.470703 1680.786987,1070.948120 1675.716919,1070.367065 
	C1670.424805,1083.601074 1665.306641,1096.400146 1660.188477,1109.199341 
	C1659.634155,1109.104370 1659.079834,1109.009521 1658.525513,1108.914551 
	C1657.023560,1101.605835 1655.521606,1094.297119 1653.770020,1085.311890 
M1561.572632,1086.906006 
	C1561.572632,1083.401123 1561.572632,1079.896362 1561.572632,1076.187012 
	C1576.432251,1076.187012 1590.215942,1076.187012 1604.457153,1076.187012 
	C1604.457153,1072.448853 1604.457153,1069.260132 1604.457153,1065.008057 
	C1586.615479,1064.487183 1569.148071,1063.977295 1550.739868,1063.439941 
	C1550.039551,1084.861084 1549.372070,1105.277466 1548.671387,1126.707275 
	C1567.965210,1127.314209 1586.427368,1127.894897 1605.417725,1128.492310 
	C1605.417725,1124.162231 1605.417725,1120.977783 1605.417725,1116.738647 
	C1590.493286,1116.223267 1575.692383,1115.712158 1560.843140,1115.199463 
	C1560.843140,1109.493408 1560.843140,1104.717529 1560.843140,1099.459595 
	C1573.027344,1099.459595 1584.472412,1099.459595 1596.329102,1099.459595 
	C1596.329102,1095.978760 1596.329102,1093.103394 1596.329102,1089.493896 
	C1585.074829,1088.957031 1574.159790,1088.436279 1561.572632,1086.906006 
M2308.988281,1332.030884 
	C2310.597412,1327.420532 2306.204102,1327.307617 2304.067383,1326.039795 
	C2293.226807,1319.607300 2282.196533,1313.494751 2270.473877,1306.839355 
	C2273.307861,1301.935547 2275.830566,1297.570435 2278.487305,1292.973389 
	C2289.397949,1299.061768 2299.205078,1304.534546 2309.608398,1310.339844 
	C2311.454834,1307.116699 2313.038330,1304.352417 2314.902344,1301.098511 
	C2304.293701,1294.931641 2294.299316,1289.122070 2283.798340,1283.017944 
	C2285.946289,1279.408936 2287.762451,1276.357056 2290.023438,1272.557983 
	C2302.615967,1279.559448 2314.710205,1286.283691 2327.487061,1293.387573 
	C2329.457764,1290.000122 2331.217773,1286.975342 2333.372803,1283.271362 
	C2317.339355,1274.205688 2302.139648,1265.611206 2286.161621,1256.576782 
	C2275.600830,1275.244385 2265.522705,1293.059082 2254.956787,1311.736206 
	C2271.672607,1321.199341 2287.747070,1330.299316 2304.218506,1339.624023 
	C2305.873291,1337.031128 2307.087646,1335.128662 2308.988281,1332.030884 
M1431.390015,1068.991577 
	C1426.875732,1068.208130 1422.356567,1066.754272 1417.848267,1066.786743 
	C1409.551514,1066.846558 1401.254883,1067.705688 1392.971558,1068.391846 
	C1390.164551,1068.624390 1387.397583,1069.340576 1384.364868,1069.879761 
	C1385.595459,1090.975586 1386.771240,1111.128540 1387.996704,1132.135498 
	C1392.205078,1131.884766 1395.625732,1131.681030 1399.586914,1131.444946 
	C1399.094971,1123.377319 1398.658691,1116.221802 1398.192383,1108.574951 
	C1404.886353,1107.923828 1410.779297,1107.294434 1416.683105,1106.791016 
	C1423.648682,1106.197021 1425.448242,1107.094971 1427.767822,1113.824829 
	C1429.457764,1118.728271 1430.273438,1123.932983 1431.633179,1129.651978 
	C1435.208374,1129.030273 1438.293091,1128.493896 1442.777100,1127.714233 
	C1440.201172,1118.649048 1437.894043,1110.530029 1435.400146,1101.753418 
	C1444.910767,1088.570312 1444.405396,1080.439941 1431.390015,1068.991577 
M2199.769531,1268.810913 
	C2201.296143,1265.916260 2202.822754,1263.021606 2204.520264,1259.803101 
	C2210.754883,1262.852539 2216.305908,1265.846558 2222.083740,1268.308350 
	C2227.010498,1270.407593 2228.508789,1273.953247 2227.297852,1278.716431 
	C2226.001465,1283.816162 2224.236084,1288.796875 2222.450195,1294.555176 
	C2225.223145,1295.969971 2228.027832,1297.400879 2231.037842,1298.936646 
	C2236.730469,1290.718506 2238.469482,1282.068359 2238.520020,1273.239502 
	C2241.125000,1272.156738 2243.373291,1271.484253 2245.360840,1270.353271 
	C2258.691895,1262.766968 2259.745361,1244.537354 2246.675537,1236.542480 
	C2235.993164,1230.007935 2224.360107,1225.026978 2212.799561,1219.180664 
	C2211.486816,1221.259888 2210.517822,1222.571777 2209.777344,1224.001831 
	C2201.066162,1240.822266 2192.389160,1257.660400 2183.356201,1275.166870 
	C2186.979492,1276.968262 2190.095459,1278.517456 2193.685547,1280.302490 
	C2195.702637,1276.489990 2197.390625,1273.299194 2199.769531,1268.810913 
M2002.017334,1188.826782 
	C2001.300537,1193.023315 2000.583618,1197.219849 1999.811157,1201.741455 
	C2001.647827,1202.552612 2003.069946,1203.365723 2004.599487,1203.803467 
	C2006.082153,1204.227905 2007.675171,1204.266846 2009.879639,1204.563965 
	C2010.957642,1199.823120 2012.271729,1195.703003 2012.746582,1191.488525 
	C2013.219360,1187.291260 2012.850098,1182.998901 2012.850098,1178.431152 
	C2014.757568,1177.172852 2017.113403,1175.915649 2019.123657,1174.242798 
	C2029.754272,1165.397217 2028.969116,1148.412598 2016.770142,1142.130737 
	C2004.768799,1135.950684 1991.386108,1133.172974 1977.975220,1129.186035 
	C1971.186279,1149.771240 1964.779297,1169.197998 1958.235596,1189.039795 
	C1962.337769,1190.357422 1965.435669,1191.352417 1969.103271,1192.530518 
	C1971.740845,1184.995361 1974.210693,1177.939331 1976.791016,1170.567871 
	C1983.047241,1172.501221 1988.350220,1174.578125 1993.847412,1175.725586 
	C2000.410400,1177.095581 2002.652344,1180.937622 2002.017334,1188.826782 
M2345.906250,1365.255615 
	C2352.847412,1369.932983 2359.931885,1374.324097 2368.723145,1374.184570 
	C2382.054199,1373.973267 2389.551270,1361.020020 2382.708984,1349.653809 
	C2380.342285,1345.722412 2376.979004,1342.359497 2373.877930,1338.910522 
	C2370.769531,1335.453369 2367.325684,1332.298096 2364.209717,1328.847168 
	C2362.127930,1326.541626 2360.602051,1323.803589 2362.867676,1320.787231 
	C2365.251709,1317.612915 2368.446289,1317.541260 2371.793701,1319.136353 
	C2379.435547,1322.777710 2385.527832,1327.515259 2383.724365,1337.347046 
	C2387.452393,1339.533081 2390.762939,1341.474243 2394.172363,1343.473511 
	C2399.794434,1335.011108 2397.633301,1328.032227 2392.292725,1321.786987 
	C2385.854492,1314.257935 2377.388428,1309.664429 2367.929443,1306.991089 
	C2360.705322,1304.949463 2354.812988,1307.413696 2350.288086,1313.159790 
	C2345.890137,1318.744507 2345.660889,1324.994629 2350.429443,1331.576294 
	C2354.108887,1336.654785 2358.812012,1340.983398 2362.958252,1345.734497 
	C2365.348389,1348.473022 2368.063477,1351.118408 2369.687500,1354.289551 
	C2371.985352,1358.775879 2369.441650,1362.251099 2364.502197,1362.261597 
	C2357.812012,1362.275757 2346.679688,1354.834839 2346.720703,1348.559448 
	C2346.777588,1339.907104 2340.890381,1338.692627 2335.488281,1335.832275 
	C2330.841553,1342.276367 2332.070312,1348.353760 2335.651611,1353.900879 
	C2338.131348,1357.741699 2341.698730,1360.880005 2345.906250,1365.255615 
M2452.226074,1401.687256 
	C2450.454102,1393.823975 2444.797119,1388.535278 2439.825928,1382.748901 
	C2436.229736,1378.562988 2432.940918,1374.113159 2428.614014,1368.641724 
	C2432.425049,1366.689453 2434.811035,1364.528442 2437.318115,1364.377197 
	C2442.639648,1364.056274 2452.286621,1372.186035 2451.872803,1377.448242 
	C2451.201172,1385.992065 2456.534180,1387.894165 2462.333984,1390.323364 
	C2467.172119,1384.079346 2466.833496,1377.866699 2463.278809,1372.166016 
	C2456.630127,1361.503296 2446.611572,1355.076050 2434.483398,1352.393188 
	C2428.041016,1350.968140 2422.879150,1354.208130 2418.963867,1359.328613 
	C2415.081299,1364.406860 2414.894775,1369.883667 2418.116943,1375.172607 
	C2420.692871,1379.400757 2423.859619,1383.285889 2426.937744,1387.186157 
	C2429.612061,1390.574585 2432.710938,1393.636353 2435.281738,1397.095459 
	C2437.241699,1399.732544 2439.401123,1402.869629 2436.646484,1406.116089 
	C2433.716309,1409.569580 2429.979492,1408.427734 2426.619385,1406.722168 
	C2418.425293,1402.563110 2412.233154,1396.991333 2414.163330,1386.596924 
	C2410.493652,1384.238892 2407.242432,1382.149780 2403.913574,1380.010864 
	C2398.358154,1387.210693 2400.100830,1393.777344 2403.923096,1399.983032 
	C2409.926514,1409.730103 2418.835205,1416.122925 2429.642334,1419.381958 
	C2441.885986,1423.074097 2450.810791,1416.479004 2452.226074,1401.687256 
M1515.989258,1070.900879 
	C1510.972412,1068.555176 1506.104004,1064.687988 1500.907715,1064.180786 
	C1490.137817,1063.129639 1479.193604,1063.863647 1468.372070,1063.863647 
	C1468.372070,1085.473267 1468.372070,1106.127197 1468.372070,1126.345337 
	C1480.351318,1126.345337 1491.286865,1127.036987 1502.092529,1126.148315 
	C1512.618164,1125.282715 1520.441284,1118.620117 1522.905273,1108.663208 
	C1526.026978,1096.049561 1527.024902,1082.909912 1515.989258,1070.900879 
M2173.833740,1207.642334 
	C2164.384277,1194.513550 2152.406494,1190.550903 2139.381836,1196.244629 
	C2125.414795,1202.350342 2116.960938,1218.989258 2120.234131,1234.277222 
	C2121.592285,1240.620239 2124.687256,1246.060791 2129.778564,1250.249512 
	C2137.276855,1256.418457 2146.119385,1256.704956 2155.188477,1255.640991 
	C2154.947266,1262.629761 2154.947266,1262.629761 2162.682617,1263.939575 
	C2166.587158,1255.034790 2170.541260,1246.017090 2174.871094,1236.141968 
	C2167.233398,1232.971191 2160.318848,1230.100708 2152.888672,1227.016113 
	C2151.619141,1230.042114 2150.651855,1232.348511 2149.739746,1234.522705 
	C2152.449463,1236.474121 2154.639404,1238.051392 2157.055420,1239.791260 
	C2145.258545,1247.155884 2134.899170,1243.873047 2132.078369,1232.644043 
	C2129.967041,1224.238770 2133.333984,1214.631714 2140.204590,1209.456787 
	C2149.176270,1202.699341 2159.828613,1204.883667 2164.026855,1215.308105 
	C2166.590576,1221.674683 2170.856689,1223.603638 2176.941406,1224.569214 
	C2178.617920,1218.756592 2176.358398,1213.916626 2173.833740,1207.642334 
M1930.019531,1155.518311 
	C1932.210815,1154.754761 1934.547119,1154.261841 1936.567017,1153.178833 
	C1943.672119,1149.369263 1947.261108,1143.117188 1947.063721,1135.232544 
	C1946.866821,1127.363525 1943.295532,1120.503174 1935.691772,1117.952271 
	C1923.254272,1113.780029 1910.417114,1110.799316 1897.176880,1107.158936 
	C1891.452271,1128.205200 1886.095947,1147.897583 1880.484741,1168.526611 
	C1884.942139,1169.477661 1888.267456,1170.187134 1891.625977,1170.903687 
	C1894.034180,1162.868530 1896.087280,1156.018188 1898.092407,1149.328003 
	C1908.979858,1151.609741 1918.700928,1153.646973 1930.019531,1155.518311 
M2068.764648,1163.679077 
	C2056.215332,1166.646118 2048.645752,1174.925293 2044.953125,1186.820923 
	C2039.939087,1202.973267 2047.911011,1219.505493 2062.617188,1224.257568 
	C2073.288818,1227.705933 2085.170654,1224.153564 2092.985107,1214.557495 
	C2101.915527,1203.591431 2104.373535,1191.256104 2098.079102,1178.243530 
	C2092.554932,1166.823608 2083.016113,1161.869751 2068.764648,1163.679077 
M2473.648438,1423.168823 
	C2472.619141,1425.613892 2471.178711,1427.970825 2470.631592,1430.519287 
	C2468.166748,1442.002075 2469.904541,1452.423462 2479.449463,1460.348022 
	C2488.072510,1467.506714 2500.556885,1468.230957 2511.251953,1462.162720 
	C2521.453369,1456.374756 2527.484619,1447.637329 2528.746094,1435.861572 
	C2531.040527,1414.441895 2511.782471,1399.703491 2491.582275,1407.340088 
	C2484.125732,1410.158936 2478.553223,1415.157593 2473.648438,1423.168823 
M1335.775024,1075.541138 
	C1326.124512,1074.196289 1318.065918,1077.196899 1311.669556,1084.518677 
	C1299.297363,1098.681152 1302.133789,1122.267944 1317.473145,1133.128296 
	C1330.022095,1142.013062 1346.471680,1139.124023 1355.229980,1126.348633 
	C1368.213867,1107.409790 1357.896362,1079.699219 1335.775024,1075.541138 
M1765.750854,1112.621826 
	C1763.949097,1123.043335 1762.147339,1133.464722 1760.182007,1144.832031 
	C1776.013062,1147.513062 1791.191406,1150.083740 1807.284546,1152.809204 
	C1807.644043,1148.442871 1807.898315,1145.353271 1808.157715,1142.203369 
	C1795.903687,1139.891602 1784.627808,1137.764404 1773.118530,1135.593262 
	C1773.856934,1130.527832 1774.422974,1126.645020 1775.096680,1122.023804 
	C1785.210693,1123.546387 1794.585938,1124.957886 1804.769043,1126.490967 
	C1805.244507,1122.515381 1805.615601,1119.413696 1806.007935,1116.133545 
	C1796.029663,1114.234131 1787.016479,1112.518555 1777.582886,1110.722900 
	C1778.079834,1107.388428 1778.454224,1104.875488 1778.942383,1101.599854 
	C1790.759766,1103.376465 1802.081665,1105.078735 1813.731934,1106.830322 
	C1814.296875,1102.845337 1814.700684,1099.996826 1815.208862,1096.412964 
	C1800.014038,1093.816650 1785.413452,1091.321777 1769.997559,1088.687622 
	C1768.546753,1096.671143 1767.253296,1103.788208 1765.750854,1112.621826 
z"/>
<path fill="#F0F2F7" opacity="1.000000" stroke="none" 
	d="
M2354.477051,1565.985107 
	C2350.960449,1563.421875 2348.062744,1561.261597 2343.431396,1557.808716 
	C2351.050781,1557.312012 2356.734863,1556.941528 2362.838623,1556.543579 
	C2364.854980,1550.882812 2366.809326,1545.395386 2369.295410,1538.416260 
	C2371.877686,1545.192993 2373.964111,1550.668579 2376.431396,1557.143555 
	C2382.096436,1557.143555 2387.881592,1557.143555 2396.061279,1557.143555 
	C2389.430908,1562.311157 2384.849365,1565.881836 2380.166992,1569.531372 
	C2381.966553,1575.553833 2383.632324,1581.128418 2385.765381,1588.266846 
	C2379.362305,1583.957520 2374.455566,1580.655273 2369.389648,1577.246094 
	C2364.445801,1580.661133 2359.837158,1583.844482 2355.228516,1587.027832 
	C2354.687988,1586.812012 2354.147705,1586.596313 2353.607178,1586.380493 
	C2354.808838,1582.576538 2355.922363,1578.741821 2357.238281,1574.977783 
	C2358.427490,1571.576538 2359.020508,1568.454102 2354.477051,1565.985107 
z"/>
<path fill="#ECEFF5" opacity="1.000000" stroke="none" 
	d="
M1638.417480,1662.390137 
	C1640.020630,1667.131470 1641.423218,1671.181274 1643.099487,1676.020752 
	C1648.791992,1676.020752 1654.625488,1676.020752 1660.458984,1676.020752 
	C1660.764160,1676.660889 1661.069336,1677.300903 1661.374512,1677.941040 
	C1656.905884,1681.428833 1652.437256,1684.916748 1647.557007,1688.725952 
	C1649.097534,1694.440063 1650.607422,1700.040283 1652.663452,1707.666260 
	C1646.398071,1703.351440 1641.846802,1700.217041 1636.676025,1696.656006 
	C1631.978027,1699.883911 1627.145020,1703.204712 1620.531250,1707.748901 
	C1622.526855,1700.529053 1624.023071,1695.116089 1625.768066,1688.802979 
	C1621.402100,1685.450195 1616.752441,1681.879395 1611.152344,1677.578857 
	C1617.613647,1675.098633 1623.517822,1677.178833 1629.861450,1675.717651 
	C1631.892578,1670.445679 1634.100464,1664.714844 1636.625366,1658.161255 
	C1637.464844,1660.026978 1637.841064,1660.862793 1638.417480,1662.390137 
z"/>
<path fill="#EDF0F6" opacity="1.000000" stroke="none" 
	d="
M1364.896240,1197.428955 
	C1366.036621,1201.516602 1367.001587,1204.469482 1371.558350,1204.130371 
	C1375.822998,1203.813232 1380.129761,1204.062622 1385.430786,1204.062622 
	C1382.235962,1210.283813 1375.806152,1211.756226 1371.606689,1216.966553 
	C1373.062378,1222.029419 1374.670776,1227.623169 1376.895630,1235.361084 
	C1370.637451,1231.128418 1365.940308,1227.951416 1360.658691,1224.379150 
	C1356.012817,1227.582153 1351.227905,1230.881104 1344.584717,1235.461182 
	C1346.602905,1228.197632 1348.052124,1222.981934 1349.782593,1216.753906 
	C1345.462646,1213.267700 1340.743652,1209.459473 1334.350220,1204.299927 
	C1342.158691,1204.299927 1347.904419,1204.299927 1353.720215,1204.299927 
	C1356.046387,1198.066650 1358.101685,1192.559448 1360.748047,1185.468262 
	C1362.380493,1190.238037 1363.484375,1193.463501 1364.896240,1197.428955 
z"/>
<path fill="#EDF0F6" opacity="1.000000" stroke="none" 
	d="
M1889.995117,1643.777588 
	C1890.969727,1640.506104 1891.755127,1637.995483 1892.792114,1634.680786 
	C1888.214233,1631.111084 1883.622803,1627.530762 1877.232544,1622.547729 
	C1884.893921,1622.547729 1890.565430,1622.547729 1896.564087,1622.547729 
	C1898.818970,1616.206055 1900.783325,1610.681885 1903.284546,1603.647583 
	C1905.905273,1610.405273 1908.081665,1616.016846 1910.380981,1621.945557 
	C1916.192993,1621.945557 1921.792603,1621.945557 1927.392090,1621.945557 
	C1927.719971,1622.470581 1928.047974,1622.995728 1928.375977,1623.520752 
	C1923.747437,1627.189575 1919.118896,1630.858398 1914.217773,1634.743164 
	C1915.906982,1640.294922 1917.513916,1645.575928 1919.120728,1650.856934 
	C1918.736694,1651.310425 1918.352661,1651.763916 1917.968628,1652.217285 
	C1913.370239,1649.061890 1908.771729,1645.906494 1903.630371,1642.378418 
	C1898.822388,1645.631470 1893.989014,1648.901855 1887.686890,1653.165894 
	C1888.647217,1649.255615 1889.226562,1646.896851 1889.995117,1643.777588 
z"/>
<path fill="#F0F2F7" opacity="1.000000" stroke="none" 
	d="
M1423.658936,1476.607544 
	C1424.668457,1481.836426 1426.643555,1484.534180 1431.878784,1483.902344 
	C1435.629395,1483.449707 1439.478516,1483.814209 1443.746216,1485.464844 
	C1439.261597,1489.078613 1434.777100,1492.692261 1430.182007,1496.395020 
	C1431.906860,1502.098877 1433.509277,1507.397827 1435.882324,1515.244995 
	C1429.308228,1510.680054 1424.672852,1507.461426 1419.597412,1503.937256 
	C1414.688965,1507.235718 1409.827026,1510.502808 1403.235840,1514.932007 
	C1405.320068,1507.663696 1406.907715,1502.127197 1408.664307,1496.001709 
	C1404.089111,1492.527100 1399.659546,1489.163208 1394.438965,1485.198486 
	C1400.524048,1482.423340 1406.509888,1484.825073 1412.844971,1483.178589 
	C1414.668335,1478.107788 1416.651855,1472.591309 1419.191772,1465.527588 
	C1420.905273,1469.703613 1422.167236,1472.779053 1423.658936,1476.607544 
z"/>
<path fill="#ECEFF5" opacity="1.000000" stroke="none" 
	d="
M2406.809326,1641.182129 
	C2403.153320,1638.698242 2400.172852,1636.607788 2396.804443,1634.245239 
	C2392.798828,1636.881836 2388.743408,1639.551147 2383.278320,1643.148560 
	C2384.878174,1637.276367 2386.059814,1632.939331 2387.439697,1627.874512 
	C2383.984131,1625.006348 2380.297607,1621.946411 2375.549316,1618.005371 
	C2381.303467,1617.636475 2385.817871,1617.346924 2390.724365,1617.032227 
	C2392.559082,1612.484863 2394.378906,1607.974365 2396.724121,1602.161621 
	C2398.837891,1607.764893 2400.488770,1612.141235 2402.342773,1617.055664 
	C2406.908691,1617.287842 2411.408203,1617.516724 2417.807373,1617.842163 
	C2413.029297,1621.798096 2409.506592,1624.714722 2405.898438,1627.702026 
	C2407.026367,1632.437988 2408.084473,1636.867310 2409.107178,1641.304688 
	C2409.122314,1641.369995 2408.705322,1641.609253 2408.473145,1641.639648 
	C2408.152100,1641.681641 2407.814941,1641.602539 2406.809326,1641.182129 
z"/>
<path fill="#F0F2F7" opacity="1.000000" stroke="none" 
	d="
M1545.586182,1574.879639 
	C1546.414673,1570.111572 1547.525513,1565.981201 1548.694336,1561.635254 
	C1544.927124,1558.598389 1541.406372,1555.760132 1536.788086,1552.037109 
	C1542.582520,1551.662720 1547.093018,1551.371338 1552.114380,1551.046997 
	C1553.767944,1546.718506 1555.395996,1542.456665 1557.829346,1536.087036 
	C1560.081177,1541.933594 1561.743408,1546.249268 1563.584717,1551.030151 
	C1568.213379,1551.282227 1572.760864,1551.530029 1579.024780,1551.871216 
	C1574.574463,1555.517822 1571.236938,1558.252808 1567.408936,1561.389526 
	C1568.326782,1565.856445 1569.285889,1570.524780 1570.519287,1576.527588 
	C1565.748535,1573.385010 1562.208862,1571.053345 1558.245483,1568.442627 
	C1554.252197,1570.725220 1550.060425,1573.121216 1545.586182,1574.879639 
z"/>
<path fill="#E6EAF2" opacity="1.000000" stroke="none" 
	d="
M2360.032227,1666.605225 
	C2361.730957,1668.389404 2363.143066,1670.091675 2364.743896,1670.293579 
	C2368.286133,1670.740112 2371.923340,1670.432495 2378.081299,1670.432495 
	C2372.717285,1674.879639 2369.080078,1677.895386 2365.208740,1681.104980 
	C2366.379395,1685.629761 2367.522949,1690.049194 2369.172852,1696.426147 
	C2363.865234,1692.947021 2359.973389,1690.395874 2355.858887,1687.698975 
	C2351.842773,1690.420288 2348.062988,1692.981323 2342.723633,1696.599243 
	C2344.238037,1690.482422 2345.364014,1685.934937 2346.569092,1681.066650 
	C2342.921631,1678.115845 2339.367676,1675.240601 2334.206543,1671.065186 
	C2340.557373,1670.674683 2345.202881,1670.389160 2350.239990,1670.079468 
	C2351.886719,1665.770386 2353.493164,1661.566040 2355.788574,1655.559204 
	C2357.539551,1660.013306 2358.685303,1662.927856 2360.032227,1666.605225 
z"/>
<path fill="#E6EAF2" opacity="1.000000" stroke="none" 
	d="
M2248.787109,1778.043457 
	C2249.040283,1779.346313 2249.040283,1779.977295 2249.040283,1781.740723 
	C2244.667725,1778.976685 2240.733887,1776.490112 2236.473633,1773.797241 
	C2232.628662,1776.297119 2228.770508,1778.805542 2223.258545,1782.388916 
	C2224.793945,1776.562988 2225.923096,1772.279053 2227.283691,1767.115601 
	C2223.769287,1764.297729 2219.997070,1761.272949 2214.690430,1757.018066 
	C2221.064697,1756.611206 2225.727539,1756.313477 2230.864746,1755.985596 
	C2232.616211,1751.497803 2234.363525,1747.021240 2236.595703,1741.301880 
	C2238.731445,1747.096436 2240.307617,1751.372559 2242.051270,1756.103027 
	C2246.768555,1756.103027 2251.364014,1756.103027 2255.959473,1756.103027 
	C2256.275146,1756.621338 2256.591064,1757.139648 2256.906738,1757.657959 
	C2253.347656,1760.685547 2249.788574,1763.713013 2245.753662,1767.145386 
	C2246.655273,1770.460815 2247.594727,1773.916138 2248.787109,1778.043457 
z"/>
<path fill="#EDF0F6" opacity="1.000000" stroke="none" 
	d="
M2115.636230,1780.027222 
	C2112.560547,1781.999634 2111.335938,1783.965454 2112.437012,1787.068481 
	C2113.613281,1790.383545 2114.487061,1793.806030 2115.976807,1798.807129 
	C2110.737305,1795.307495 2106.972656,1792.793091 2102.791992,1790.000854 
	C2098.843750,1792.474609 2094.807861,1795.003296 2089.377441,1798.405762 
	C2090.946045,1792.573853 2092.118408,1788.214478 2093.419189,1783.377808 
	C2089.922852,1780.543701 2086.387939,1777.678223 2081.440186,1773.667725 
	C2087.274658,1773.202881 2091.659912,1772.853638 2096.743896,1772.448608 
	C2098.469727,1768.181763 2100.278809,1763.708984 2102.652832,1757.839233 
	C2104.776855,1763.432129 2106.416748,1767.750122 2108.195068,1772.433105 
	C2112.846191,1772.725952 2117.332520,1773.008301 2123.652832,1773.406128 
	C2120.402832,1776.134888 2118.316162,1777.886963 2115.636230,1780.027222 
z"/>
<path fill="#ECEFF5" opacity="1.000000" stroke="none" 
	d="
M1342.072998,1540.693115 
	C1344.051147,1542.604248 1345.714111,1544.409546 1347.633423,1544.744507 
	C1350.790405,1545.295410 1354.113647,1544.893799 1359.824463,1544.893799 
	C1354.770142,1549.125244 1351.422729,1551.927612 1347.427002,1555.272705 
	C1348.476074,1559.614258 1349.607666,1564.297363 1351.099609,1570.471802 
	C1346.129761,1567.216431 1342.373291,1564.755981 1338.152588,1561.991333 
	C1334.227905,1564.512695 1330.164917,1567.122925 1324.914551,1570.495850 
	C1326.407837,1564.697510 1327.544434,1560.284058 1328.794189,1555.431152 
	C1325.268311,1552.493286 1321.791016,1549.595825 1316.971924,1545.580444 
	C1322.892578,1545.141724 1327.339478,1544.812378 1332.393311,1544.437866 
	C1333.984985,1540.234253 1335.582153,1536.016113 1337.896362,1529.904419 
	C1339.616943,1534.241333 1340.744873,1537.084106 1342.072998,1540.693115 
z"/>
<path fill="#ECEFF5" opacity="1.000000" stroke="none" 
	d="
M1640.310547,1365.495117 
	C1640.263916,1358.223267 1632.633667,1358.409790 1629.994507,1352.668945 
	C1634.900024,1352.338745 1639.528687,1352.027100 1644.557495,1351.688477 
	C1646.181274,1347.438721 1647.789551,1343.229370 1650.136230,1337.087646 
	C1652.348755,1342.842773 1653.893188,1346.859741 1655.729126,1351.635132 
	C1660.258057,1351.896240 1665.028564,1352.171265 1671.537109,1352.546631 
	C1666.964111,1356.352661 1663.544678,1359.198608 1659.449951,1362.606567 
	C1660.590454,1366.952759 1661.811646,1371.606445 1663.457520,1377.878540 
	C1658.446289,1374.611450 1654.718384,1372.181030 1650.207031,1369.239990 
	C1646.443481,1371.746704 1642.433594,1374.417603 1636.990601,1378.043091 
	C1638.321167,1373.026489 1639.223755,1369.623291 1640.310547,1365.495117 
z"/>
<path fill="#ECEFF5" opacity="1.000000" stroke="none" 
	d="
M1917.581055,1438.202393 
	C1913.969849,1440.607300 1911.814331,1442.683594 1913.746338,1446.781616 
	C1914.973633,1449.384644 1915.387695,1452.371216 1916.721558,1457.191895 
	C1911.481079,1453.933594 1907.787598,1451.637329 1903.563721,1449.011230 
	C1899.583130,1451.558716 1895.481567,1454.183838 1890.305542,1457.496460 
	C1891.775513,1451.845703 1892.980347,1447.214111 1894.275269,1442.236572 
	C1890.657227,1439.292358 1887.144043,1436.433350 1882.248413,1432.449341 
	C1888.077148,1432.078857 1892.447754,1431.801147 1897.771606,1431.462769 
	C1899.343994,1427.280518 1901.054199,1422.731567 1903.255371,1416.876831 
	C1905.433960,1422.138672 1907.238037,1426.495850 1909.295898,1431.466064 
	C1913.599609,1431.672607 1918.181274,1431.892456 1924.369141,1432.189453 
	C1921.734253,1434.591431 1919.990479,1436.181030 1917.581055,1438.202393 
z"/>
<path fill="#F0F2F7" opacity="1.000000" stroke="none" 
	d="
M1994.887085,1491.683594 
	C1996.950439,1491.758667 1998.266113,1491.833374 2001.618408,1492.023682 
	C1996.878174,1495.947510 1993.337158,1498.878662 1989.543335,1502.019043 
	C1990.838501,1506.604492 1992.070435,1510.965576 1993.907349,1517.468750 
	C1988.428345,1513.810791 1984.716919,1511.333008 1980.559326,1508.557373 
	C1976.685913,1511.072266 1972.637695,1513.700806 1967.077393,1517.311035 
	C1968.783813,1511.229736 1970.005127,1506.876831 1971.338135,1502.126099 
	C1967.756226,1499.174805 1964.258911,1496.293091 1959.433838,1492.317505 
	C1965.258911,1491.918823 1969.626587,1491.619873 1974.586060,1491.280518 
	C1976.330078,1486.932983 1978.132812,1482.439209 1980.550537,1476.412476 
	C1982.703613,1482.257935 1984.325439,1486.661255 1986.038452,1491.311890 
	C1988.911011,1491.443604 1991.525269,1491.563477 1994.887085,1491.683594 
z"/>
<path fill="#DEE3ED" opacity="1.000000" stroke="none" 
	d="
M1530.075684,1618.549438 
	C1536.520630,1617.595703 1534.291626,1611.247681 1538.297974,1608.080811 
	C1539.741577,1611.371094 1541.108765,1614.487061 1542.685669,1618.081299 
	C1545.983521,1618.374512 1549.443726,1618.682251 1554.485107,1619.130493 
	C1551.026978,1622.347900 1548.527344,1624.673584 1545.725952,1627.280029 
	C1546.483154,1630.561157 1547.280029,1634.014282 1548.407349,1638.898682 
	C1544.487793,1636.582275 1541.578491,1634.862915 1538.141357,1632.831543 
	C1535.187988,1634.561279 1531.946411,1636.459839 1527.428467,1639.105957 
	C1528.617310,1634.288208 1529.459106,1630.876343 1530.342651,1627.295166 
	C1527.640869,1624.867310 1525.070068,1622.557251 1520.636963,1618.573853 
	C1525.081421,1618.573853 1527.196899,1618.573853 1530.075684,1618.549438 
z"/>
<path fill="#DEE3ED" opacity="1.000000" stroke="none" 
	d="
M2236.600342,1688.375244 
	C2238.933105,1695.285034 2244.951904,1691.422852 2249.710693,1693.945557 
	C2246.835693,1696.574463 2244.339111,1698.857300 2241.567383,1701.391724 
	C2242.271973,1704.785767 2242.986328,1708.227783 2243.944092,1712.841675 
	C2240.030273,1710.609375 2237.054932,1708.912231 2233.751465,1707.027954 
	C2230.748779,1708.848389 2227.718018,1710.685791 2223.529785,1713.224854 
	C2224.504395,1708.685791 2225.233154,1705.291260 2226.071045,1701.388672 
	C2223.504883,1699.200562 2220.819336,1696.910522 2216.975830,1693.633423 
	C2221.497070,1693.115479 2224.864990,1692.729614 2228.972412,1692.259033 
	C2230.181885,1689.323242 2231.533203,1686.043579 2233.363525,1681.601685 
	C2234.608154,1684.112061 2235.494629,1685.899536 2236.600342,1688.375244 
z"/>
<path fill="#E6EAF2" opacity="1.000000" stroke="none" 
	d="
M2072.899414,1298.045776 
	C2071.293701,1296.791382 2070.298584,1295.936035 2068.185303,1294.120117 
	C2072.509521,1293.502075 2075.813721,1293.029785 2079.590088,1292.489990 
	C2080.957520,1289.496582 2082.429688,1286.273682 2084.548096,1281.636719 
	C2086.267334,1285.749023 2087.527588,1288.763794 2089.035400,1292.370605 
	C2092.284424,1292.762207 2095.790039,1293.184814 2100.634277,1293.768921 
	C2097.490967,1296.613281 2095.007324,1298.860718 2092.135986,1301.459106 
	C2092.867920,1304.643921 2093.656982,1308.077148 2094.769043,1312.915527 
	C2090.740723,1310.641846 2087.790771,1308.976807 2084.488525,1307.113037 
	C2081.514404,1308.853638 2078.431396,1310.658203 2074.246826,1313.107300 
	C2075.012939,1309.771851 2075.332031,1307.341797 2076.145264,1305.090332 
	C2077.281738,1301.944702 2075.925537,1300.047485 2072.899414,1298.045776 
z"/>
<path fill="#E6EAF2" opacity="1.000000" stroke="none" 
	d="
M2226.155273,1840.297852 
	C2231.158203,1832.153687 2223.232910,1830.466675 2219.145752,1825.815308 
	C2223.607666,1825.342651 2227.074463,1824.975464 2230.856689,1824.574829 
	C2232.219482,1821.264648 2233.561035,1818.006226 2235.313232,1813.750488 
	C2237.169678,1817.679077 2238.670410,1820.855469 2240.458252,1824.639038 
	C2243.648682,1824.932983 2247.096924,1825.250610 2252.070557,1825.708862 
	C2248.530518,1828.788696 2246.173096,1830.839600 2243.359619,1833.287109 
	C2244.013428,1836.547607 2244.708252,1840.012207 2245.648193,1844.699341 
	C2242.082275,1842.721924 2239.192871,1841.119751 2235.674561,1839.168823 
	C2232.953125,1840.746216 2229.903320,1842.513916 2225.999268,1844.776733 
	C2225.999268,1843.092529 2225.999268,1841.996460 2226.155273,1840.297852 
z"/>
<path fill="#ECEFF5" opacity="1.000000" stroke="none" 
	d="
M1842.198364,1492.587280 
	C1845.804932,1493.062622 1848.704346,1493.239258 1853.310547,1493.519897 
	C1849.463379,1496.786743 1846.841553,1499.013184 1844.004395,1501.422363 
	C1844.866089,1504.869141 1845.716431,1508.270020 1846.972412,1513.293823 
	C1842.789673,1510.701660 1840.079224,1509.021973 1836.799438,1506.989258 
	C1833.956665,1508.633057 1830.889160,1510.406738 1826.632446,1512.868164 
	C1827.452637,1508.666992 1828.088257,1505.411377 1828.842896,1501.546021 
	C1826.519775,1499.410400 1823.954834,1497.052490 1820.362061,1493.749634 
	C1824.613159,1493.339355 1827.765503,1493.035156 1831.482056,1492.676392 
	C1833.042480,1489.481567 1834.728394,1486.029907 1836.659790,1482.075439 
	C1838.496704,1485.958496 1839.994019,1489.123535 1842.198364,1492.587280 
z"/>
<path fill="#E6EAF2" opacity="1.000000" stroke="none" 
	d="
M2051.555176,1713.996094 
	C2047.588745,1715.206787 2044.357056,1716.746582 2040.212891,1718.721313 
	C2040.936523,1714.945923 2041.570435,1711.638916 2042.313110,1707.764160 
	C2039.850952,1705.556396 2037.228638,1703.205200 2033.908691,1700.228516 
	C2038.124268,1699.701904 2041.615356,1699.265869 2045.366943,1698.797241 
	C2046.753296,1695.587036 2048.133545,1692.390869 2050.083740,1687.874878 
	C2052.092041,1692.527954 2053.470703,1695.722290 2054.880859,1698.989502 
	C2058.648438,1699.292725 2062.167480,1699.575928 2067.187500,1699.979858 
	C2063.372070,1702.948975 2060.839111,1704.920288 2057.843262,1707.251587 
	C2058.508057,1710.613281 2059.189209,1714.056763 2060.166992,1719.000732 
	C2056.904541,1717.064453 2054.597168,1715.694946 2051.555176,1713.996094 
z"/>
<path fill="#E6EAF2" opacity="1.000000" stroke="none" 
	d="
M2152.939941,1733.802490 
	C2151.494141,1733.842285 2149.807129,1733.362061 2149.832275,1733.241943 
	C2150.438721,1730.358521 2151.228271,1727.513672 2152.100098,1724.226685 
	C2149.490479,1721.910034 2146.861572,1719.576294 2143.350098,1716.459229 
	C2147.859375,1715.926147 2151.257324,1715.524292 2155.045898,1715.076416 
	C2156.304688,1711.738159 2157.565430,1708.395264 2159.208008,1704.039307 
	C2161.131592,1708.171875 2162.736816,1711.620972 2164.473877,1715.352661 
	C2168.002197,1715.583618 2171.454346,1715.809448 2176.590332,1716.145630 
	C2172.656494,1719.383423 2169.995361,1721.573853 2167.018799,1724.023560 
	C2167.963379,1727.642456 2168.856201,1731.063477 2170.086182,1735.775879 
	C2166.142578,1733.429443 2163.235352,1731.699951 2159.687988,1729.589233 
	C2157.806152,1730.762939 2155.651123,1732.106567 2152.939941,1733.802490 
z"/>
<path fill="#E6EAF2" opacity="1.000000" stroke="none" 
	d="
M2464.263184,1560.732910 
	C2466.172607,1568.833496 2472.566895,1564.961914 2477.845703,1566.969238 
	C2475.014893,1569.612305 2472.526855,1571.935303 2469.549805,1574.714844 
	C2470.187256,1577.826416 2470.894043,1581.276855 2471.887451,1586.125610 
	C2468.206787,1583.985107 2465.341064,1582.318481 2461.855713,1580.291626 
	C2459.169189,1581.912598 2456.121582,1583.751343 2451.753418,1586.386841 
	C2452.620117,1582.077759 2453.288086,1578.757324 2454.077881,1574.832397 
	C2451.495117,1572.497192 2448.687744,1569.958862 2444.851318,1566.489990 
	C2449.901855,1566.223877 2453.421631,1566.038330 2457.263184,1565.835815 
	C2458.560547,1562.391846 2459.775879,1559.164917 2461.493652,1554.604614 
	C2462.756592,1557.254883 2463.421143,1558.649658 2464.263184,1560.732910 
z"/>
<path fill="#E6EAF2" opacity="1.000000" stroke="none" 
	d="
M2310.521240,1713.961670 
	C2310.964111,1717.886353 2311.717285,1721.065186 2312.787842,1725.582886 
	C2308.768311,1723.240356 2305.788086,1721.503296 2302.513428,1719.594849 
	C2299.480957,1721.443726 2296.405762,1723.318848 2292.171387,1725.900757 
	C2293.185303,1721.631348 2293.960938,1718.365601 2294.889893,1714.454834 
	C2292.389893,1712.072510 2289.633545,1709.446045 2286.170166,1706.145874 
	C2290.507812,1705.849487 2293.769775,1705.626709 2297.558350,1705.367920 
	C2299.081055,1701.986694 2300.656982,1698.487671 2302.705078,1693.940186 
	C2304.371338,1698.245850 2305.616943,1701.465332 2307.011230,1705.068359 
	C2310.456055,1705.435913 2314.011719,1705.815430 2318.822754,1706.328857 
	C2315.632324,1709.078491 2313.231934,1711.147217 2310.521240,1713.961670 
z"/>
<path fill="#CED5E4" opacity="1.000000" stroke="none" 
	d="
M1861.502563,1540.513794 
	C1867.316040,1541.657471 1867.641846,1536.953003 1869.708374,1533.508789 
	C1871.483154,1536.044067 1872.507935,1538.547363 1874.371948,1539.851929 
	C1875.949463,1540.956177 1878.497803,1540.673096 1879.844727,1540.883423 
	C1878.319702,1545.244385 1876.934326,1549.206421 1875.634399,1552.923828 
	C1872.297852,1552.923828 1868.132568,1552.923828 1863.490234,1552.923828 
	C1865.208740,1549.064331 1863.054688,1545.106934 1859.590454,1541.582397 
	C1859.508423,1541.499023 1859.689331,1540.990479 1859.875488,1540.850708 
	C1860.124390,1540.663818 1860.498535,1540.643555 1861.502563,1540.513794 
z"/>
<path fill="#DEE3ED" opacity="1.000000" stroke="none" 
	d="
M1492.130127,1447.687012 
	C1494.660156,1448.073364 1496.321045,1448.893311 1493.823975,1450.477905 
	C1489.906982,1452.963745 1489.599731,1456.059814 1491.747437,1459.451660 
	C1487.242310,1459.451660 1483.122192,1459.451660 1479.113281,1459.451660 
	C1478.085205,1456.400635 1476.825684,1452.662598 1475.433350,1448.530762 
	C1479.284668,1448.245850 1483.084473,1445.843262 1484.206665,1440.272583 
	C1487.318970,1442.684570 1486.189453,1448.340088 1492.130127,1447.687012 
z"/>
<path fill="#CED5E4" opacity="1.000000" stroke="none" 
	d="
M1907.918457,1856.814331 
	C1905.081665,1857.802368 1902.322632,1858.073364 1899.610962,1858.339722 
	C1898.863281,1855.894287 1898.147217,1853.552246 1897.344604,1850.927246 
	C1898.880371,1849.612793 1900.924072,1847.863403 1903.201538,1845.914062 
	C1905.184326,1847.355347 1907.643555,1849.142822 1909.927002,1850.802612 
	C1909.269531,1852.605225 1908.632812,1854.351318 1907.918457,1856.814331 
z"/>
<path fill="#F0F2F7" opacity="1.000000" stroke="none" 
	d="
M2098.226074,1117.520020 
	C2100.822754,1116.351929 2103.357910,1115.570312 2104.125977,1113.950806 
	C2106.104736,1109.778198 2107.302002,1105.234985 2109.478760,1098.896729 
	C2112.313721,1105.953979 2114.552490,1111.526978 2117.023926,1117.678955 
	C2122.742920,1117.678955 2128.299316,1117.678955 2135.862549,1117.678955 
	C2129.800781,1122.504517 2125.306641,1126.081909 2120.552246,1129.866699 
	C2122.306152,1135.769409 2123.980469,1141.403809 2126.176270,1148.792603 
	C2119.926514,1144.440063 2115.124023,1141.095581 2109.969727,1137.505859 
	C2104.881104,1140.933105 2099.980713,1144.233398 2093.419434,1148.652466 
	C2095.564697,1141.473877 2097.221680,1135.930420 2099.042725,1129.837036 
	C2094.340332,1126.123901 2089.797363,1122.536743 2083.450195,1117.525024 
	C2089.525391,1117.525024 2093.442627,1117.525024 2098.226074,1117.520020 
z"/>
<path fill="#0DA044" opacity="1.000000" stroke="none" 
	d="
M1653.894775,1086.150146 
	C1655.521606,1094.297119 1657.023560,1101.605835 1658.525513,1108.914551 
	C1659.079834,1109.009521 1659.634155,1109.104370 1660.188477,1109.199341 
	C1665.306641,1096.400146 1670.424805,1083.601074 1675.716919,1070.367065 
	C1680.786987,1070.948120 1685.347656,1071.470703 1691.146118,1072.135132 
	C1689.378418,1092.814819 1687.638428,1113.171387 1685.825562,1134.378540 
	C1682.080933,1134.184937 1679.006348,1134.026001 1675.147339,1133.826538 
	C1676.111572,1121.399048 1677.006714,1109.862549 1677.901855,1098.326172 
	C1677.379761,1098.131714 1676.857544,1097.937378 1676.335327,1097.742920 
	C1671.765137,1109.080688 1667.194946,1120.418457 1662.341553,1132.458740 
	C1659.087158,1132.257812 1655.935181,1132.063232 1652.472046,1131.849365 
	C1649.935425,1119.642456 1647.520630,1108.021118 1644.724487,1094.564697 
	C1641.026855,1101.254517 1642.424438,1106.948120 1641.657715,1112.213135 
	C1640.844238,1117.799805 1640.368652,1123.435791 1639.666870,1129.757812 
	C1636.590088,1129.757812 1633.517334,1129.757812 1629.089844,1129.757812 
	C1630.866821,1108.909302 1632.602295,1088.545532 1634.411255,1067.321167 
	C1639.698608,1067.612549 1644.239258,1067.862793 1649.800171,1068.169189 
	C1651.128784,1073.906738 1652.449463,1079.609375 1653.894775,1086.150146 
z"/>
<path fill="#0FA146" opacity="1.000000" stroke="none" 
	d="
M1562.408691,1087.410889 
	C1574.159790,1088.436279 1585.074829,1088.957031 1596.329102,1089.493896 
	C1596.329102,1093.103394 1596.329102,1095.978760 1596.329102,1099.459595 
	C1584.472412,1099.459595 1573.027344,1099.459595 1560.843140,1099.459595 
	C1560.843140,1104.717529 1560.843140,1109.493408 1560.843140,1115.199463 
	C1575.692383,1115.712158 1590.493286,1116.223267 1605.417725,1116.738647 
	C1605.417725,1120.977783 1605.417725,1124.162231 1605.417725,1128.492310 
	C1586.427368,1127.894897 1567.965210,1127.314209 1548.671387,1126.707275 
	C1549.372070,1105.277466 1550.039551,1084.861084 1550.739868,1063.439941 
	C1569.148071,1063.977295 1586.615479,1064.487183 1604.457153,1065.008057 
	C1604.457153,1069.260132 1604.457153,1072.448853 1604.457153,1076.187012 
	C1590.215942,1076.187012 1576.432251,1076.187012 1561.572632,1076.187012 
	C1561.572632,1079.896362 1561.572632,1083.401123 1562.408691,1087.410889 
z"/>
<path fill="#0EA145" opacity="1.000000" stroke="none" 
	d="
M2308.645020,1332.628418 
	C2307.087646,1335.128662 2305.873291,1337.031128 2304.218506,1339.624023 
	C2287.747070,1330.299316 2271.672607,1321.199341 2254.956787,1311.736206 
	C2265.522705,1293.059082 2275.600830,1275.244385 2286.161621,1256.576782 
	C2302.139648,1265.611206 2317.339355,1274.205688 2333.372803,1283.271362 
	C2331.217773,1286.975342 2329.457764,1290.000122 2327.487061,1293.387573 
	C2314.710205,1286.283691 2302.615967,1279.559448 2290.023438,1272.557983 
	C2287.762451,1276.357056 2285.946289,1279.408936 2283.798340,1283.017944 
	C2294.299316,1289.122070 2304.293701,1294.931641 2314.902344,1301.098511 
	C2313.038330,1304.352417 2311.454834,1307.116699 2309.608398,1310.339844 
	C2299.205078,1304.534546 2289.397949,1299.061768 2278.487305,1292.973389 
	C2275.830566,1297.570435 2273.307861,1301.935547 2270.473877,1306.839355 
	C2282.196533,1313.494751 2293.226807,1319.607300 2304.067383,1326.039795 
	C2306.204102,1327.307617 2310.597412,1327.420532 2308.645020,1332.628418 
z"/>
<path fill="#0EA145" opacity="1.000000" stroke="none" 
	d="
M1432.047607,1069.406982 
	C1444.405396,1080.439941 1444.910767,1088.570312 1435.400146,1101.753418 
	C1437.894043,1110.530029 1440.201172,1118.649048 1442.777100,1127.714233 
	C1438.293091,1128.493896 1435.208374,1129.030273 1431.633179,1129.651978 
	C1430.273438,1123.932983 1429.457764,1118.728271 1427.767822,1113.824829 
	C1425.448242,1107.094971 1423.648682,1106.197021 1416.683105,1106.791016 
	C1410.779297,1107.294434 1404.886353,1107.923828 1398.192383,1108.574951 
	C1398.658691,1116.221802 1399.094971,1123.377319 1399.586914,1131.444946 
	C1395.625732,1131.681030 1392.205078,1131.884766 1387.996704,1132.135498 
	C1386.771240,1111.128540 1385.595459,1090.975586 1384.364868,1069.879761 
	C1387.397583,1069.340576 1390.164551,1068.624390 1392.971558,1068.391846 
	C1401.254883,1067.705688 1409.551514,1066.846558 1417.848267,1066.786743 
	C1422.356567,1066.754272 1426.875732,1068.208130 1432.047607,1069.406982 
M1396.541504,1081.604736 
	C1396.823853,1086.341431 1397.106201,1091.078247 1397.429565,1096.500977 
	C1406.796021,1095.667358 1414.691895,1095.149414 1422.534180,1094.191895 
	C1426.725586,1093.680176 1428.829712,1090.575073 1428.830933,1086.510620 
	C1428.832153,1082.399292 1426.449463,1079.656982 1422.469360,1078.727783 
	C1420.589478,1078.289062 1418.523438,1078.417480 1416.566284,1078.581055 
	C1410.310181,1079.104370 1404.065308,1079.764038 1396.541504,1081.604736 
z"/>
<path fill="#0DA044" opacity="1.000000" stroke="none" 
	d="
M2199.424072,1269.459595 
	C2197.390625,1273.299194 2195.702637,1276.489990 2193.685547,1280.302490 
	C2190.095459,1278.517456 2186.979492,1276.968262 2183.356201,1275.166870 
	C2192.389160,1257.660400 2201.066162,1240.822266 2209.777344,1224.001831 
	C2210.517822,1222.571777 2211.486816,1221.259888 2212.799561,1219.180664 
	C2224.360107,1225.026978 2235.993164,1230.007935 2246.675537,1236.542480 
	C2259.745361,1244.537354 2258.691895,1262.766968 2245.360840,1270.353271 
	C2243.373291,1271.484253 2241.125000,1272.156738 2238.520020,1273.239502 
	C2238.469482,1282.068359 2236.730469,1290.718506 2231.037842,1298.936646 
	C2228.027832,1297.400879 2225.223145,1295.969971 2222.450195,1294.555176 
	C2224.236084,1288.796875 2226.001465,1283.816162 2227.297852,1278.716431 
	C2228.508789,1273.953247 2227.010498,1270.407593 2222.083740,1268.308350 
	C2216.305908,1265.846558 2210.754883,1262.852539 2204.520264,1259.803101 
	C2202.822754,1263.021606 2201.296143,1265.916260 2199.424072,1269.459595 
M2231.327881,1241.681152 
	C2226.640137,1239.429199 2221.952637,1237.177246 2216.804443,1234.703979 
	C2214.183594,1239.912231 2212.016357,1244.219116 2209.691650,1248.838989 
	C2212.956543,1250.558838 2215.273682,1251.819946 2217.626953,1253.010376 
	C2221.782959,1255.113159 2225.870361,1257.385742 2230.151367,1259.198608 
	C2235.840820,1261.608032 2240.108154,1260.309082 2242.139648,1255.993652 
	C2244.022705,1251.993774 2242.679688,1248.260742 2238.021240,1245.101929 
	C2236.380127,1243.989136 2234.507324,1243.218140 2231.327881,1241.681152 
z"/>
<path fill="#0DA044" opacity="1.000000" stroke="none" 
	d="
M2002.037842,1187.982056 
	C2002.652344,1180.937622 2000.410400,1177.095581 1993.847412,1175.725586 
	C1988.350220,1174.578125 1983.047241,1172.501221 1976.791016,1170.567871 
	C1974.210693,1177.939331 1971.740845,1184.995361 1969.103271,1192.530518 
	C1965.435669,1191.352417 1962.337769,1190.357422 1958.235596,1189.039795 
	C1964.779297,1169.197998 1971.186279,1149.771240 1977.975220,1129.186035 
	C1991.386108,1133.172974 2004.768799,1135.950684 2016.770142,1142.130737 
	C2028.969116,1148.412598 2029.754272,1165.397217 2019.123657,1174.242798 
	C2017.113403,1175.915649 2014.757568,1177.172852 2012.850098,1178.431152 
	C2012.850098,1182.998901 2013.219360,1187.291260 2012.746582,1191.488525 
	C2012.271729,1195.703003 2010.957642,1199.823120 2009.879639,1204.563965 
	C2007.675171,1204.266846 2006.082153,1204.227905 2004.599487,1203.803467 
	C2003.069946,1203.365723 2001.647827,1202.552612 1999.811157,1201.741455 
	C2000.583618,1197.219849 2001.300537,1193.023315 2002.037842,1187.982056 
M1995.332642,1163.929688 
	C1997.862305,1164.672607 2000.349976,1165.653198 2002.930420,1166.109131 
	C2008.355103,1167.067505 2011.975708,1165.180542 2013.382446,1161.004883 
	C2014.748901,1156.949219 2012.792847,1152.694214 2007.811401,1150.879150 
	C2000.484253,1148.209595 1992.932373,1146.157104 1984.946777,1143.677246 
	C1983.198486,1149.163086 1981.730103,1153.770142 1980.121460,1158.817993 
	C1985.108887,1160.530151 1989.440308,1162.017212 1995.332642,1163.929688 
z"/>
<path fill="#0EA145" opacity="1.000000" stroke="none" 
	d="
M2345.343262,1364.793945 
	C2341.698730,1360.880005 2338.131348,1357.741699 2335.651611,1353.900879 
	C2332.070312,1348.353760 2330.841553,1342.276367 2335.488281,1335.832275 
	C2340.890381,1338.692627 2346.777588,1339.907104 2346.720703,1348.559448 
	C2346.679688,1354.834839 2357.812012,1362.275757 2364.502197,1362.261597 
	C2369.441650,1362.251099 2371.985352,1358.775879 2369.687500,1354.289551 
	C2368.063477,1351.118408 2365.348389,1348.473022 2362.958252,1345.734497 
	C2358.812012,1340.983398 2354.108887,1336.654785 2350.429443,1331.576294 
	C2345.660889,1324.994629 2345.890137,1318.744507 2350.288086,1313.159790 
	C2354.812988,1307.413696 2360.705322,1304.949463 2367.929443,1306.991089 
	C2377.388428,1309.664429 2385.854492,1314.257935 2392.292725,1321.786987 
	C2397.633301,1328.032227 2399.794434,1335.011108 2394.172363,1343.473511 
	C2390.762939,1341.474243 2387.452393,1339.533081 2383.724365,1337.347046 
	C2385.527832,1327.515259 2379.435547,1322.777710 2371.793701,1319.136353 
	C2368.446289,1317.541260 2365.251709,1317.612915 2362.867676,1320.787231 
	C2360.602051,1323.803589 2362.127930,1326.541626 2364.209717,1328.847168 
	C2367.325684,1332.298096 2370.769531,1335.453369 2373.877930,1338.910522 
	C2376.979004,1342.359497 2380.342285,1345.722412 2382.708984,1349.653809 
	C2389.551270,1361.020020 2382.054199,1373.973267 2368.723145,1374.184570 
	C2359.931885,1374.324097 2352.847412,1369.932983 2345.343262,1364.793945 
z"/>
<path fill="#0DA044" opacity="1.000000" stroke="none" 
	d="
M2452.321289,1402.491211 
	C2450.810791,1416.479004 2441.885986,1423.074097 2429.642334,1419.381958 
	C2418.835205,1416.122925 2409.926514,1409.730103 2403.923096,1399.983032 
	C2400.100830,1393.777344 2398.358154,1387.210693 2403.913574,1380.010864 
	C2407.242432,1382.149780 2410.493652,1384.238892 2414.163330,1386.596924 
	C2412.233154,1396.991333 2418.425293,1402.563110 2426.619385,1406.722168 
	C2429.979492,1408.427734 2433.716309,1409.569580 2436.646484,1406.116089 
	C2439.401123,1402.869629 2437.241699,1399.732544 2435.281738,1397.095459 
	C2432.710938,1393.636353 2429.612061,1390.574585 2426.937744,1387.186157 
	C2423.859619,1383.285889 2420.692871,1379.400757 2418.116943,1375.172607 
	C2414.894775,1369.883667 2415.081299,1364.406860 2418.963867,1359.328613 
	C2422.879150,1354.208130 2428.041016,1350.968140 2434.483398,1352.393188 
	C2446.611572,1355.076050 2456.630127,1361.503296 2463.278809,1372.166016 
	C2466.833496,1377.866699 2467.172119,1384.079346 2462.333984,1390.323364 
	C2456.534180,1387.894165 2451.201172,1385.992065 2451.872803,1377.448242 
	C2452.286621,1372.186035 2442.639648,1364.056274 2437.318115,1364.377197 
	C2434.811035,1364.528442 2432.425049,1366.689453 2428.614014,1368.641724 
	C2432.940918,1374.113159 2436.229736,1378.562988 2439.825928,1382.748901 
	C2444.797119,1388.535278 2450.454102,1393.823975 2452.321289,1402.491211 
z"/>
<path fill="#0DA044" opacity="1.000000" stroke="none" 
	d="
M1516.526123,1071.440063 
	C1527.024902,1082.909912 1526.026978,1096.049561 1522.905273,1108.663208 
	C1520.441284,1118.620117 1512.618164,1125.282715 1502.092529,1126.148315 
	C1491.286865,1127.036987 1480.351318,1126.345337 1468.372070,1126.345337 
	C1468.372070,1106.127197 1468.372070,1085.473267 1468.372070,1063.863647 
	C1479.193604,1063.863647 1490.137817,1063.129639 1500.907715,1064.180786 
	C1506.104004,1064.687988 1510.972412,1068.555176 1516.526123,1071.440063 
M1508.870850,1109.851929 
	C1510.222046,1107.589722 1512.190918,1105.486938 1512.822510,1103.039062 
	C1516.468384,1088.908325 1510.938477,1077.690308 1500.112061,1076.091919 
	C1493.432495,1075.105591 1486.488770,1075.909180 1480.183594,1075.909180 
	C1480.183594,1089.704224 1480.183594,1102.189819 1480.183594,1115.615845 
	C1490.104736,1114.655884 1499.545776,1117.320068 1508.870850,1109.851929 
z"/>
<path fill="#0FA146" opacity="1.000000" stroke="none" 
	d="
M2174.142090,1208.333008 
	C2176.358398,1213.916626 2178.617920,1218.756592 2176.941406,1224.569214 
	C2170.856689,1223.603638 2166.590576,1221.674683 2164.026855,1215.308105 
	C2159.828613,1204.883667 2149.176270,1202.699341 2140.204590,1209.456787 
	C2133.333984,1214.631714 2129.967041,1224.238770 2132.078369,1232.644043 
	C2134.899170,1243.873047 2145.258545,1247.155884 2157.055420,1239.791260 
	C2154.639404,1238.051392 2152.449463,1236.474121 2149.739746,1234.522705 
	C2150.651855,1232.348511 2151.619141,1230.042114 2152.888672,1227.016113 
	C2160.318848,1230.100708 2167.233398,1232.971191 2174.871094,1236.141968 
	C2170.541260,1246.017090 2166.587158,1255.034790 2162.682617,1263.939575 
	C2154.947266,1262.629761 2154.947266,1262.629761 2155.188477,1255.640991 
	C2146.119385,1256.704956 2137.276855,1256.418457 2129.778564,1250.249512 
	C2124.687256,1246.060791 2121.592285,1240.620239 2120.234131,1234.277222 
	C2116.960938,1218.989258 2125.414795,1202.350342 2139.381836,1196.244629 
	C2152.406494,1190.550903 2164.384277,1194.513550 2174.142090,1208.333008 
z"/>
<path fill="#0EA145" opacity="1.000000" stroke="none" 
	d="
M1929.220825,1155.601318 
	C1918.700928,1153.646973 1908.979858,1151.609741 1898.092407,1149.328003 
	C1896.087280,1156.018188 1894.034180,1162.868530 1891.625977,1170.903687 
	C1888.267456,1170.187134 1884.942139,1169.477661 1880.484741,1168.526611 
	C1886.095947,1147.897583 1891.452271,1128.205200 1897.176880,1107.158936 
	C1910.417114,1110.799316 1923.254272,1113.780029 1935.691772,1117.952271 
	C1943.295532,1120.503174 1946.866821,1127.363525 1947.063721,1135.232544 
	C1947.261108,1143.117188 1943.672119,1149.369263 1936.567017,1153.178833 
	C1934.547119,1154.261841 1932.210815,1154.754761 1929.220825,1155.601318 
M1927.301758,1127.431274 
	C1920.011841,1125.512695 1912.722046,1123.594238 1904.813843,1121.512939 
	C1903.422119,1127.192871 1902.274292,1131.876587 1900.979858,1137.159546 
	C1908.619873,1139.156250 1915.389282,1140.690186 1922.001587,1142.732666 
	C1926.760376,1144.202881 1930.612427,1143.574341 1933.291504,1139.295654 
	C1935.569092,1135.658447 1934.169189,1132.442017 1927.301758,1127.431274 
z"/>
<path fill="#0DA044" opacity="1.000000" stroke="none" 
	d="
M2069.525635,1163.557373 
	C2083.016113,1161.869751 2092.554932,1166.823608 2098.079102,1178.243530 
	C2104.373535,1191.256104 2101.915527,1203.591431 2092.985107,1214.557495 
	C2085.170654,1224.153564 2073.288818,1227.705933 2062.617188,1224.257568 
	C2047.911011,1219.505493 2039.939087,1202.973267 2044.953125,1186.820923 
	C2048.645752,1174.925293 2056.215332,1166.646118 2069.525635,1163.557373 
M2070.407959,1175.461060 
	C2058.908203,1180.689209 2053.882324,1189.355835 2055.870117,1200.529907 
	C2057.271484,1208.408447 2063.551514,1213.942993 2070.886475,1213.764160 
	C2080.478027,1213.530273 2089.310059,1203.620972 2089.645752,1192.715698 
	C2089.977539,1181.955811 2083.596191,1175.624634 2070.407959,1175.461060 
z"/>
<path fill="#0DA044" opacity="1.000000" stroke="none" 
	d="
M2473.993408,1422.488037 
	C2478.553223,1415.157593 2484.125732,1410.158936 2491.582275,1407.340088 
	C2511.782471,1399.703491 2531.040527,1414.441895 2528.746094,1435.861572 
	C2527.484619,1447.637329 2521.453369,1456.374756 2511.251953,1462.162720 
	C2500.556885,1468.230957 2488.072510,1467.506714 2479.449463,1460.348022 
	C2469.904541,1452.423462 2468.166748,1442.002075 2470.631592,1430.519287 
	C2471.178711,1427.970825 2472.619141,1425.613892 2473.993408,1422.488037 
M2487.648193,1451.746460 
	C2501.850586,1457.542969 2515.977295,1449.117798 2517.255127,1434.088501 
	C2518.138428,1423.700928 2510.204590,1416.126587 2499.819092,1417.442749 
	C2483.958984,1419.452515 2476.778076,1437.231323 2487.648193,1451.746460 
z"/>
<path fill="#0DA044" opacity="1.000000" stroke="none" 
	d="
M1336.524414,1075.651855 
	C1357.896362,1079.699219 1368.213867,1107.409790 1355.229980,1126.348633 
	C1346.471680,1139.124023 1330.022095,1142.013062 1317.473145,1133.128296 
	C1302.133789,1122.267944 1299.297363,1098.681152 1311.669556,1084.518677 
	C1318.065918,1077.196899 1326.124512,1074.196289 1336.524414,1075.651855 
M1325.482056,1124.205322 
	C1335.551147,1130.487915 1347.581055,1123.216919 1348.835083,1110.328125 
	C1349.232910,1106.240112 1348.400146,1101.699585 1346.916260,1097.832031 
	C1344.010620,1090.258911 1336.635864,1086.085205 1329.747192,1087.148193 
	C1322.711548,1088.233887 1317.137573,1094.244873 1316.081543,1102.203735 
	C1314.958862,1110.665039 1317.339844,1117.895996 1325.482056,1124.205322 
z"/>
<path fill="#0FA146" opacity="1.000000" stroke="none" 
	d="
M1765.855347,1111.763550 
	C1767.253296,1103.788208 1768.546753,1096.671143 1769.997559,1088.687622 
	C1785.413452,1091.321777 1800.014038,1093.816650 1815.208862,1096.412964 
	C1814.700684,1099.996826 1814.296875,1102.845337 1813.731934,1106.830322 
	C1802.081665,1105.078735 1790.759766,1103.376465 1778.942383,1101.599854 
	C1778.454224,1104.875488 1778.079834,1107.388428 1777.582886,1110.722900 
	C1787.016479,1112.518555 1796.029663,1114.234131 1806.007935,1116.133545 
	C1805.615601,1119.413696 1805.244507,1122.515381 1804.769043,1126.490967 
	C1794.585938,1124.957886 1785.210693,1123.546387 1775.096680,1122.023804 
	C1774.422974,1126.645020 1773.856934,1130.527832 1773.118530,1135.593262 
	C1784.627808,1137.764404 1795.903687,1139.891602 1808.157715,1142.203369 
	C1807.898315,1145.353271 1807.644043,1148.442871 1807.284546,1152.809204 
	C1791.191406,1150.083740 1776.013062,1147.513062 1760.182007,1144.832031 
	C1762.147339,1133.464722 1763.949097,1123.043335 1765.855347,1111.763550 
z"/>
<path fill="#F1FAF4" opacity="1.000000" stroke="none" 
	d="
M1397.178833,1080.987915 
	C1404.065308,1079.764038 1410.310181,1079.104370 1416.566284,1078.581055 
	C1418.523438,1078.417480 1420.589478,1078.289062 1422.469360,1078.727783 
	C1426.449463,1079.656982 1428.832153,1082.399292 1428.830933,1086.510620 
	C1428.829712,1090.575073 1426.725586,1093.680176 1422.534180,1094.191895 
	C1414.691895,1095.149414 1406.796021,1095.667358 1397.429565,1096.500977 
	C1397.106201,1091.078247 1396.823853,1086.341431 1397.178833,1080.987915 
z"/>
<path fill="#F1FAF4" opacity="1.000000" stroke="none" 
	d="
M2232.034180,1241.986084 
	C2234.507324,1243.218140 2236.380127,1243.989136 2238.021240,1245.101929 
	C2242.679688,1248.260742 2244.022705,1251.993774 2242.139648,1255.993652 
	C2240.108154,1260.309082 2235.840820,1261.608032 2230.151367,1259.198608 
	C2225.870361,1257.385742 2221.782959,1255.113159 2217.626953,1253.010376 
	C2215.273682,1251.819946 2212.956543,1250.558838 2209.691650,1248.838989 
	C2212.016357,1244.219116 2214.183594,1239.912231 2216.804443,1234.703979 
	C2221.952637,1237.177246 2226.640137,1239.429199 2232.034180,1241.986084 
z"/>
<path fill="#F1FAF4" opacity="1.000000" stroke="none" 
	d="
M1994.552246,1163.716919 
	C1989.440308,1162.017212 1985.108887,1160.530151 1980.121460,1158.817993 
	C1981.730103,1153.770142 1983.198486,1149.163086 1984.946777,1143.677246 
	C1992.932373,1146.157104 2000.484253,1148.209595 2007.811401,1150.879150 
	C2012.792847,1152.694214 2014.748901,1156.949219 2013.382446,1161.004883 
	C2011.975708,1165.180542 2008.355103,1167.067505 2002.930420,1166.109131 
	C2000.349976,1165.653198 1997.862305,1164.672607 1994.552246,1163.716919 
z"/>
<path fill="#F9FCFB" opacity="1.000000" stroke="none" 
	d="
M1508.300293,1110.396362 
	C1499.545776,1117.320068 1490.104736,1114.655884 1480.183594,1115.615845 
	C1480.183594,1102.189819 1480.183594,1089.704224 1480.183594,1075.909180 
	C1486.488770,1075.909180 1493.432495,1075.105591 1500.112061,1076.091919 
	C1510.938477,1077.690308 1516.468384,1088.908325 1512.822510,1103.039062 
	C1512.190918,1105.486938 1510.222046,1107.589722 1508.300293,1110.396362 
z"/>
<path fill="#F1FAF4" opacity="1.000000" stroke="none" 
	d="
M1928.065430,1127.661621 
	C1934.169189,1132.442017 1935.569092,1135.658447 1933.291504,1139.295654 
	C1930.612427,1143.574341 1926.760376,1144.202881 1922.001587,1142.732666 
	C1915.389282,1140.690186 1908.619873,1139.156250 1900.979858,1137.159546 
	C1902.274292,1131.876587 1903.422119,1127.192871 1904.813843,1121.512939 
	C1912.722046,1123.594238 1920.011841,1125.512695 1928.065430,1127.661621 
z"/>
<path fill="#F7FCF8" opacity="1.000000" stroke="none" 
	d="
M2071.123535,1175.255005 
	C2083.596191,1175.624634 2089.977539,1181.955811 2089.645752,1192.715698 
	C2089.310059,1203.620972 2080.478027,1213.530273 2070.886475,1213.764160 
	C2063.551514,1213.942993 2057.271484,1208.408447 2055.870117,1200.529907 
	C2053.882324,1189.355835 2058.908203,1180.689209 2071.123535,1175.255005 
z"/>
<path fill="#F7FCF8" opacity="1.000000" stroke="none" 
	d="
M2487.010742,1451.239014 
	C2476.778076,1437.231323 2483.958984,1419.452515 2499.819092,1417.442749 
	C2510.204590,1416.126587 2518.138428,1423.700928 2517.255127,1434.088501 
	C2515.977295,1449.117798 2501.850586,1457.542969 2487.010742,1451.239014 
z"/>
<path fill="#F7FCF8" opacity="1.000000" stroke="none" 
	d="
M1324.808350,1123.802124 
	C1317.339844,1117.895996 1314.958862,1110.665039 1316.081543,1102.203735 
	C1317.137573,1094.244873 1322.711548,1088.233887 1329.747192,1087.148193 
	C1336.635864,1086.085205 1344.010620,1090.258911 1346.916260,1097.832031 
	C1348.400146,1101.699585 1349.232910,1106.240112 1348.835083,1110.328125 
	C1347.581055,1123.216919 1335.551147,1130.487915 1324.808350,1123.802124 
z"/>
</svg>
