<svg id="e2p4ifABhlm1" xmlns="http://www.w3.org/2000/svg" xmlns:xlink="http://www.w3.org/1999/xlink" viewBox="0 0 1920 230" shape-rendering="geometricPrecision" text-rendering="geometricPrecision"><path d="M-0.86054,1074.090698v-81.664321c0,0,0,.00001,0,0v0c96.205392.803245,191.342705-32.030986,238.931655-52.306986c96.652898-41.180446,224.870802-56.784755,299.107408-47.279224c123.60934,15.827399,148.708334,48.641982,274.524898,70.915421c78.181266,13.840512,121.109511,28.670789,209.015735,28.670789c49.997539,0,110.006548-14.830277,160.583963-21.995186c73.105622-11.340493,206.388974-39.791497,305.605484-45.251662c72.114209-3.968649,49.799116-4.453974,116.528722,0c45.632133,3.148738,83.224661,12.140803,129.995396,28.78143c23.21295,8.258969,95.920506,28.208993,141.505446,34.062471l44.201293,4.402947v81.664321h-1920Z" transform="translate(.86054-844.090698)" fill="#032332" stroke="#032332"/></svg>
