<svg id="enzkb8OWi291" xmlns="http://www.w3.org/2000/svg" xmlns:xlink="http://www.w3.org/1999/xlink" viewBox="0 0 1920 230" shape-rendering="geometricPrecision" text-rendering="geometricPrecision"><path d="M-0.86054,1074.090698v-103.659497c0,0,0,0,0-.00001v-12.143738c50.772099,0,89.761866-.303545,139.437127-14.732433c76.201312-22.133751,99.178237-40.996653,184.495078-47.880403c160.944089-12.985697,290.929818,57.54228,445.070602,69.979048c84.998683,6.858073,166.040187-8.017703,247.261441-29.464865c48.340615-12.76475,93.826401-30.896689,144.55284-34.989524c98.923728-7.981618,187.732052,48.667562,283.399658,57.088177c76.971925,6.77503,137.085874-29.737698,211.123234-34.989524c47.402266-3.362472,97.595445-6.150473,142.650829,5.524659c23.970578,6.211461,70.672909,35.186865,96.909157,40.70099l25.100034-6.777499v111.344619h-1920Z" transform="translate(.859931-844.090698)" fill="#2f4450" stroke="#2f4450"/></svg>
