<svg id="ePxDMfnZliq1" xmlns="http://www.w3.org/2000/svg" xmlns:xlink="http://www.w3.org/1999/xlink" viewBox="0 0 1920 230" shape-rendering="geometricPrecision" text-rendering="geometricPrecision"><path d="M-0.86054,1080v-107.06258c0,0,0,0,0-.00001v-4.93437c50.772099,0,89.761866-7.92155,139.437127-22.82413c76.201312-22.86039,99.178237-42.34255,184.495078-49.45229c160.944089-13.41201,290.929818,59.43136,445.070602,72.27642c84.998683,7.08322,166.040187-8.28092,247.261441-30.43218c48.340615-13.18381,93.826401-31.91101,144.55284-36.13821c98.923729-8.24365,187.732052,50.26529,283.399658,58.96235c76.971924,6.99745,137.085874-30.71397,211.123234-36.13821c47.402267-3.47286,97.595445-6.35239,142.650829,5.70603c23.970578,6.41538,70.672909,36.34203,96.909157,42.03718h25.100034v108h-1920Z" transform="translate(.86054-850)" fill="#2f4450" stroke="#2f4450"/></svg>
