<svg id="eKcMRN7BvtE1" xmlns="http://www.w3.org/2000/svg" xmlns:xlink="http://www.w3.org/1999/xlink" viewBox="0 0 1920 1080" shape-rendering="geometricPrecision" text-rendering="geometricPrecision"><g transform="translate(-411.115234 83.646279)"><g transform="translate(411.115227-63.948189)"><path d="M0,426.722139l101.685897-30.792316l96.225989,38.490396l48.112995-25.018758l103.924068-9.622599-1.924521,23.094238l127.018306-7.698079l244.414015,3.849039l109.697627,23.094238L792.5885,465.212534l71.207233,7.698079l96.204261,25.018757-84.657143,21.169717-25.018758,20.90091l59.660114,17.589486L807.984658,588.3818l-67.358193-13.47164-115.471188,40.414915-67.358193-26.943277l48.112995,42.339435L403.8355,646.117392l-53.886551,21.169716L403.8355,680.758747l-78.905312,15.396158-46.188475,26.943278l26.943277,19.245198-184.753901-15.396159L0,769.286658v-342.564519Z" transform="translate(.99161-415.628007)" fill="#d1f9ff" stroke="#fff" stroke-width="3.84"/><path d="M605.910079,401.434575v138.565425L677.60234,421.728515l53.256592-20.293942l9.767533-55.811074-115.471188,40.414914-67.358193-26.943276l48.112995,42.339438Z" transform="translate(.000009-186.341342)" fill="#3f5e7a" stroke="#fff" stroke-width="3.84"/><path d="M403.8355,416.830734l43.960797,34.641355-6.187087,139.075166-37.773712-96.735732-78.905313-26.943279L403.8355,451.472086l-53.886554-13.47164L403.8355,416.830734Z" transform="translate(.00001-186.341343)" fill="#3f5e7a" stroke="#fff" stroke-width="3.84"/><path d="M120.931089,497.660564L0,683.579769L-0.000001,540l120.93109-42.339436Z" transform="translate(.000008-186.341349)" fill="#3f5e7a" stroke="#fff" stroke-width="3.84"/><path d="M349.948949,170.492204l-1.924521,23.094238h38.338815l-36.414296-23.094238" transform="translate(.00001-186.341349)" fill="#3f5e7a" stroke="#3f5e7a" stroke-width="3.84"/><path d="M829.154376,212.83164l-41.225474,23.094236l51.799465,7.698079-10.573991-30.792315Z" transform="translate(.000009-186.341347)" fill="#3f5e7a" stroke="#3f5e7a" stroke-width="3.84"/><path d="M1036.142552,580.785031L923.056487,740.71728h11.935614L886.00321,848.800606q38.893624,21.150164,38.893624,23.77337t-74.572753,34.365701l-29.620772,38.080912l29.620772,35.294504-14.514227,167.610854-57.267125,98.7172h-779.534332l.991597-563.063381l120.931098-189.76824L305.684993,513.05672l-26.943286-19.245198l46.188475-26.943275l78.905312,26.943278l37.773713,96.735723l6.187087-139.075165-43.960797-34.641355l202.074576-15.396152v138.565425l71.692263-118.271485l53.25659-20.293947.000002-.00001-11.402194,217.514356l21.169727,12.887401l47.302435,13.620818l79.89796,2.358776h42.157346l8.537466-15.979594l6.375166-25.146434l111.245718-25.904851Z" transform="translate(.99161-186.341331)" fill="#02222f" stroke="#02222f" stroke-width="3.84"/><path d="M867.826862,647.815926l14.664543,28.790686-1.170054,25.741155l8.190367,17.199814-21.684857,64.437985" transform="translate(-.847655-184.646019)" fill="none" stroke="#d1f9ff" stroke-width="3.84"/><path d="M719.456749,623.846532l-8.963058,43.753645l8.963058,34.747591" transform="translate(-1.755958-194.846409)" fill="none" stroke="#d1f9ff" stroke-width="3.84"/><path d="M960.000006,268.642712l-11.387311,132.79188-23.715863-15.396172l23.715862,97.226933-38.628488,101.601569" transform="translate(.000008-186.341349)" fill="none" stroke="#30240d" stroke-width="3.84"/><path d="M740.626467,345.623506l-9.767533,55.811088-5.281719,5.210829-6.120467,208.696049h33.160693l24.295334,4.210827l48.699707-24.60463l24.711601-3.816754l59.660121-.583662l39.304764-107.281899-24.392132-97.226934l24.392132,15.396155L959.99999,268.642712l-15.322106,5.264096-69.335037,15.905621-25.018758,20.90091l67.933512,17.589488-106.223565,30.792317-71.407569-13.471638Z" transform="translate(.000011-186.341349)" fill="#02222f" stroke="#02222f" stroke-width="3.84"/><path d="M909.984199,328.302825q-20.472479,68.187819-20.472479,73.131767t-.000001,81.83076l-25.715987,65.000235" transform="translate(-.886743-186.341347)" fill="none" stroke="#d1f9ff" stroke-width="3.84"/><path d="M807.984658,359.09514l8.098764,67.659677v76.934183" transform="translate(.000007-186.341348)" fill="none" stroke="#d1f9ff" stroke-width="3.84"/><path d="M305.68499,513.056723q0,.000013,42.339441,96.712549l-23.094244,49.325845l42.26365,17.511497-42.263652,133.751114" transform="translate(.000011-186.341348)" fill="none" stroke="#d1f9ff" stroke-width="3.84"/><path d="M520.373987,740.717295l-40.37399,69.640434-38.390784,162.816953" transform="translate(.000007-186.341348)" fill="none" stroke="#d1f9ff" stroke-width="3.84"/><path d="M557.797084,925.686404l-12.548285-97.237902-45.226932-56.533665" transform="translate(.000009-186.341348)" fill="none" stroke="#d1f9ff" stroke-width="3.84"/><path d="M500.021869,451.472089l20.352118,61.584647-20.352118,51.056557" transform="translate(.000007-186.341348)" fill="none" stroke="#d1f9ff" stroke-width="3.84"/><path d="M557.797086,503.689001l10.065179,60.424293l2.261346,54.835646" transform="translate(.000009-186.341347)" fill="none" stroke="#d1f9ff" stroke-width="3.84"/><path d="M120.931098,503.689003L101.685897,631.836332l45.565904,70.511436-45.565905,126.100733l19.245191,58.981136" transform="translate(.00001-186.341347)" fill="none" stroke="#d1f9ff" stroke-width="3.84"/><path d="M124.468852,659.095117l83.839308-68.47495-24.874813-67.453453" transform="translate(.000007-186.341349)" fill="none" stroke="#d1f9ff" stroke-width="3.84"/></g><path d="M929.139908,573.512007l86.000203,6.894005-42.963545,29.811942l59.671588,15.558984-109.347483,25.146433-17.156288,62.006374h-101.441704q18.678592,16.921825,16.423806,16.921825t-138.48108-49.057307L666.65802,650.923369l104.968758,13.620819l53.319599-26.508212l61.788092-.000001l27.492801-27.818021l14.912638-36.705947Z" transform="translate(416.401236-295.281333)" fill="#d1f9ff" stroke="#d1f9ff" stroke-width="3.84"/><path d="M1023.45846,559.087058l4.511684,29.181184-46.264509-8.150955l41.752825-21.030229Z" transform="matrix(.871679 0.010466-.015634 1.302115 550.339394-451.56208)" fill="#3f5e7a" stroke="#3f5e7a" stroke-width="3.84"/><path d="M829.855554,703.94672v41.568499l42.214378-58.490325-53.998227-.000001l11.783849,16.921827Z" transform="translate(406.872168-269.376481)" fill="#3f5e7a" stroke="#3f5e7a" stroke-width="3.84"/><path d="M781.155847,638.035972q0-3.607461,11.016125-29.218464l-16.789146-32.228837" transform="translate(406.872167-269.376482)" fill="none" stroke="#d1f9ff" stroke-width="3.84"/><path d="M1015.925782,650.923369l-29.067216,84.064414-22.615494,43.478636-32.213336,50.978345l20.826024,51.791238l7.144237,38.153207-63.736463,44.718433l3.162468,302.719283-101.084287-1.096725l49.77585-179.267734-8.38217-122.354824l14.831756-38.080912l75.56435-34.365701-39.885221-23.773372c24.343806-52.68476,43.020845-98.152862,49.980488-108.083326l-25.007899,12.868807l100.706913-121.749769Z" transform="matrix(1.018527 0 0 1 377.516974-269.376479)" fill="#3f5e7a" stroke="#3f5e7a" stroke-width="3.84"/><path d="M674.815237,625.776939q0,3.079373,7.030173,41.126028l-16.425274,61.476122l25.954338,74.693518" transform="translate(406.872166-269.376483)" fill="none" stroke="#d1f9ff" stroke-width="3.84"/></g></svg>
