<svg id="e6WsC2cLbAV1" xmlns="http://www.w3.org/2000/svg" xmlns:xlink="http://www.w3.org/1999/xlink" viewBox="0 0 1920 230" shape-rendering="geometricPrecision" text-rendering="geometricPrecision"><path d="M-0.46074,232.66688v-108h1.54854L1.08779,79.98799c39.07598,0,90.54463-3.30042,129.46026,0c38.27556,3.24614,76.48941,20.66885,113.27773,30.87978c24.39193,6.77019,49.63162,11.06972,75.20408,13.79911h226.51894C658.48617,113.33106,773.03519,86.27999,883.03587,96.4572c151.74569,14.03945,269.65664,31.64288,420.74588-10.29326c57.18168-15.87127,120.40357-28.16184,180.03069-22.64517c43.33831,4.00964,78.77836,30.84574,119.34619,43.23169c45.70278,13.95373,92.18436,16.46921,139.57436,16.46921c28.12551,0,168.50009-43.23168,176.79976-43.23168.55078,0,0,12.13619.00652,16.46921.00838,5.57012-.00652,13.68323-.00652,23.03596c0,1.69467-.0524,3.42317-.1511,5.17372h.15761v108h-1920Z" transform="translate(.000001 0)" opacity="0.9" fill="#74929b" stroke="#74929b"/></svg>
