<svg id="e9IkK4Q7Lbf1" xmlns="http://www.w3.org/2000/svg" xmlns:xlink="http://www.w3.org/1999/xlink" viewBox="0 0 1920 230" shape-rendering="geometricPrecision" text-rendering="geometricPrecision"><path d="M-0.46074,242.17934v-114.025927v0-47.171776c39.071507,0,92.082617-3.484569,130.993793,0c38.271178,3.42726,76.480653,21.822081,113.264762,32.602736c24.389138,7.147937,49.625938,11.687362,75.195471,14.56904h226.493009c112.924441-11.968309,227.460348-40.52871,337.448435-29.783657c151.728319,14.82279,269.625771,33.408414,420.697715-10.867578c57.175134-16.756818,120.389787-29.733148,180.010081-23.908672c43.333348,4.233361,78.769341,32.566797,119.332527,45.643829c45.697548,14.732287,92.173807,17.38812,139.558382,17.38812c28.122291,0,168.480801-45.643818,176.779521-45.643818.550717,0,0,12.813336.006519,17.388119.008379,5.880909-.006519,14.446695-.006519,24.321266c0,1.789225-.052394,3.614168-.151083,5.462391h.157592v114.025927h-1919.780205Z" transform="translate(.46074-12.17934)" opacity="0.9" fill="#74929b" stroke="#74929b"/></svg>
