<svg id="eZ1vyVuz9Qa1" xmlns="http://www.w3.org/2000/svg" xmlns:xlink="http://www.w3.org/1999/xlink" viewBox="0 0 1920 1080" shape-rendering="geometricPrecision" text-rendering="geometricPrecision"><path d="M-2.76316,570.19737c66.83321-11.13886,148.80681-19.22458,216.71053-12.43421c24.5633,2.45633,48.44011,13.32882,72.82895,17.76316c55.96034,10.17461,112.34579,16.18813,168.75,21.31579c127.76453,11.61496,250.27259-39.06015,374.80263-51.51316c27.52569-2.75257,60.51427-.99616,87.03947-1.77631c102.34277-3.01008,199.44812,37.8856,300.19737,47.96053c74.78548,7.47855,149.0568,16.29583,223.81579,23.09211c137.48768,12.49888,274.30034-30.01037,410.32895-39.07895c24.26594-1.61773,33.39802.110288,57.739993-3.55265c34.6067-5.207556-18.026049,108.018641-19.807658,132.131252-3.573657,48.366502,12.527788,71.526805,19.807658,118.845945c7.48544,48.65534-4.884,101.698228,0,150.538198c1.47022,14.70224,7.20911,91.089225,0,101.181985-5.30171,7.4224-44.321333,6.28741-57.739993,5.32894-70.94458-5.06747-116.325116-24.72006-185.894196-17.76315-47.18392,4.71839-95.125574,0-142.615134,0-68.19663,0-135.63333,7.85074-204.3854,12.43421-127.09933,8.47329-229.75169.96125-358.8158-7.10526-74.20076-4.63755-170.37436,8.87955-244.95123,3.55263-102.27125-7.30509-202.95185-8.88158-305.70666-8.88158-136.53007,0-228.041287,19.32396-363.792167,8.88158C24.620123,1069.50844,18.98304,1078.11194,0,1067.5658c-16.30906-9.06059,9.896159-101.30022,9.896159-119.82668C9.896159,849.80444,-9.35082,817.420749,0,723.912589c1.12212-11.22115,0-119.941835,0-127.070479c0-9.851097-1.097542-8.8816-1.097542-24.86843" fill="#3f5e7a" stroke="#3f5e7a" stroke-width="3.84"/></svg>
