<svg id="egZV874dNRn1" xmlns="http://www.w3.org/2000/svg" xmlns:xlink="http://www.w3.org/1999/xlink" viewBox="0 0 1920 1080" shape-rendering="geometricPrecision" text-rendering="geometricPrecision"><path d="M-0.98684,621.71053c59.026573,0,328.16017-94.112,502.69737-106.57895c135.89374-9.7067,259.08097,64.24659,392.56579,76.38158c79.28938,7.20813,164.37216,8.59861,243.35526-3.55263c48.39308-7.44509,101.53522-35.14253,150.98684-30.19737c32.1126,3.21126,63.26899,17.82309,94.14474,26.64474c67.21526,19.20436,134.85928,38.04381,204.27632,47.96053c75.69258,10.81323,156.68275,23.327,232.69737,10.65789c7.2401-1.20668,92.35472-29.662976,96.08747-27.796606c4.47844,2.23922,0,92.476394,0,103.823384c0,94.63964-7.83503,188.070989,0,282.091379.79265,9.51175.66415,69.569328,0,70.233478-8.51139,8.51139-48.253365,9.370415-61.724005,8.622045-103.57323-5.75407-236.949602-14.62691-339.754452-1.77631-108.71142,13.58893-202.571769,6.10929-312.538979,0-105.67963-5.87109-213.450758.169835-318.684408-6.845735-55.83071-3.72205-128.991151-5.03379-184.362881,0-93.52072,8.50188-176.455793,6.845735-270.398893,6.845735-106.93263,0-211.111957.169464-317.455322,0-22.164342-.03532-94.713121-6.091485-110.905381,1.77631-8.631728,4.194144-4.175679-84.280569-4.175679-107.545069c0-37.206754-.986839-74.628923,0-111.036218c1.090159-40.219054,4.175679-160.46824,4.175679-192.807215c0-14.30708,0-36.243078,0-46.900968" transform="translate(2.115234-2.537477)" fill="#02222f" stroke="#02222f" stroke-width="3.84"/></svg>
