<svg id="ejUxznCDGeF1" xmlns="http://www.w3.org/2000/svg" xmlns:xlink="http://www.w3.org/1999/xlink" viewBox="0 0 300 400" shape-rendering="geometricPrecision" text-rendering="geometricPrecision"><defs><filter id="ejUxznCDGeF14-filter" x="-150%" width="400%" y="-150%" height="400%"><feGaussianBlur id="ejUxznCDGeF14-filter-blur-0" stdDeviation="7,7" result="result"/></filter><filter id="ejUxznCDGeF15-filter" x="-150%" width="400%" y="-150%" height="400%"><feGaussianBlur id="ejUxznCDGeF15-filter-blur-0" stdDeviation="7,7" result="result"/></filter></defs><polygon points="0,-46.865899 44.572119,-14.482359 27.547084,37.915309 -27.547084,37.915309 -44.572119,-14.482359 0,-46.865899" transform="matrix(-.991459-.130415 0.130415-.991459 110.498251 190.210897)" fill="#e60000" stroke-width="0"/><polygon points="0,-46.865899 44.572119,-14.482359 27.547084,37.915309 -27.547084,37.915309 -44.572119,-14.482359 0,-46.865899" transform="matrix(-.987121 0.159978-.159978-.987121 177.198655 195.22276)" fill="#e60000" stroke-width="0"/><g transform="translate(.000012 26.966804)"><polygon points="0,-30 28.531695,-9.27051 17.633558,24.27051 -17.633558,24.27051 -28.531695,-9.27051 0,-30" transform="matrix(.906657 0 0 1.020252 143.875244 36.974685)" fill="#e80202" stroke-width="0"/><rect width="70.1856" height="24.493914" rx="0" ry="0" transform="translate(108.782444 215.522609)" fill="#fd0000" stroke-width="0"/><ellipse rx="48.899803" ry="87.156708" transform="translate(143.894918 106.897126)" fill="#d2dbed" stroke-width="0"/><polygon points="0,-60.866852 57.887816,-18.808892 35.776638,49.242317 -35.776638,49.242317 -57.887816,-18.808892 0,-60.866852" transform="matrix(1 0.000357-.000357 1 143.892841 178.506566)" fill="#d2dbed" stroke-width="0"/><ellipse rx="26.342645" ry="26.964273" transform="matrix(1.385586 0 0 1.353643 143.914592 81.119032)" fill="#0c0c0c" stroke-width="0"/><ellipse rx="24.538354" ry="25.117405" transform="matrix(1.385586 0 0 1.353643 143.914592 81.119032)" fill="#535353" stroke-width="0"/><ellipse rx="35.211137" ry="34.838435" transform="matrix(.809403 0 0 0.818062 143.914593 81.119032)" fill="#fff" stroke-width="0"/><ellipse rx="27.5" ry="27.5" transform="translate(143.914593 81.119032)" opacity="0.48" fill="#8daef1" stroke-width="0"/><path d="M17.90601,39.33548c0-2.91803,2.44689-5.28355,5.46527-5.28355s5.46527,2.36553,5.46527,5.28355-2.44689,5.28355-5.46527,5.28355-5.46527-2.36553-5.46527-5.28355Zm0,36.5c0-2.91803,2.44689-5.28355,5.46527-5.28355s5.46527,2.36553,5.46527,5.28355-2.44689,5.28355-5.46527,5.28355-5.46527-2.36553-5.46527-5.28355Zm0-17.93289c0-2.91803,2.44689-5.28355,5.46527-5.28355s5.46527,2.36553,5.46527,5.28355-2.44689,5.28355-5.46527,5.28355-5.46527-2.36553-5.46527-5.28355Z" transform="translate(120.503964 101.083939)" stroke-width="0"/></g><path d="M117.79089,195.03686c-3.40669-17.13959-4.52629-31.36035-2.5007-31.76296s6.42932,13.1654,9.836,30.30499s4.52629,31.36035,2.5007,31.76296-6.42932-13.1654-9.836-30.30499Zm-64.13153-3.02361c3.54206-17.11213,8.05289-30.6449,10.07524-30.22629s.79037,14.63007-2.75169,31.7422-8.05289,30.6449-10.07524,30.22629-.79037-14.63007,2.75169-31.7422Zm49.73941,13.67735c-3.47813-17.12523-4.65702-31.3412-2.63313-31.75226s6.48416,13.13847,9.96229,30.26371s4.65702,31.3412,2.63313,31.75226-6.48416-13.13847-9.96229-30.26371Zm-37.1019-.18365c2.93482-17.22666,6.96436-30.91046,9.00024-30.56362s1.30714,14.59298-1.62767,31.81964-6.96436,30.91046-9.00024,30.56362-1.30714-14.59298,1.62767-31.81964ZM86.36574,225.1702c0-17.47487,1.67419-31.64105,3.7394-31.64105s3.7394,14.16618,3.7394,31.64105-1.67419,31.64105-3.7394,31.64105-3.7394-14.16618-3.7394-31.64105Z" transform="translate(54.583426 119.578662)" filter="url(#ejUxznCDGeF14-filter)" fill="#ef9774" stroke-width="0"/><path d="M117.79089,195.03686c-3.40669-17.13959-4.52629-31.36035-2.5007-31.76296s6.42932,13.1654,9.836,30.30499s4.52629,31.36035,2.5007,31.76296-6.42932-13.1654-9.836-30.30499Zm-64.13153-3.02361c3.54206-17.11213,8.05289-30.6449,10.07524-30.22629s.79037,14.63007-2.75169,31.7422-8.05289,30.6449-10.07524,30.22629-.79037-14.63007,2.75169-31.7422Zm49.73941,13.67735c-3.47813-17.12523-4.65702-31.3412-2.63313-31.75226s6.48416,13.13847,9.96229,30.26371s4.65702,31.3412,2.63313,31.75226-6.48416-13.13847-9.96229-30.26371Zm-37.1019-.18365c2.93482-17.22666,6.96436-30.91046,9.00024-30.56362s1.30714,14.59298-1.62767,31.81964-6.96436,30.91046-9.00024,30.56362-1.30714-14.59298,1.62767-31.81964ZM86.36574,225.1702c0-17.47487,1.67419-31.64105,3.7394-31.64105s3.7394,14.16618,3.7394,31.64105-1.67419,31.64105-3.7394,31.64105-3.7394-14.16618-3.7394-31.64105Z" transform="matrix(.706093 0 0 0.706093 80.826917 167.184988)" filter="url(#ejUxznCDGeF15-filter)" fill="#f1e92e" stroke-width="0"/></svg>
