<svg id="es8f3oZOqPk1" xmlns="http://www.w3.org/2000/svg" xmlns:xlink="http://www.w3.org/1999/xlink" viewBox="0 0 300 300" shape-rendering="geometricPrecision" text-rendering="geometricPrecision"><defs><filter id="es8f3oZOqPk2-filter" x="-150%" width="400%" y="-150%" height="400%"><feGaussianBlur id="es8f3oZOqPk2-filter-blur-0" stdDeviation="0,0" result="result"/></filter></defs><path d="M39.44923,142.40095c0-.46632.37802-.84434.84434-.84434s.84434.37802.84434.84434-.37802.84434-.84434.84434-.84434-.37802-.84434-.84434Zm89.78138,50.70096c0-.31088.25202-.56289.56289-.56289s.56289.25202.56289.56289-.25202.56289-.56289.56289-.56289-.25202-.56289-.56289Zm44.46852-57.41505c0-.31088.25202-.56289.56289-.56289s.56289.25202.56289.56289-.25202.56289-.56289.56289-.56289-.25202-.56289-.56289ZM120.78722,266.5594c0-.31088.25202-.56289.56289-.56289s.56289.25202.56289.56289-.25202.56289-.56289.56289-.56289-.25202-.56289-.56289ZM37.4791,77.42746c0-.77719.63004-1.40723,1.40723-1.40723s1.40723.63004,1.40723,1.40723-.63004,1.40723-1.40723,1.40723-1.40723-.63004-1.40723-1.40723Zm115.33536-57.1336c0-.31088.37802-.56289.84434-.56289s.84434.25202.84434.56289-.37802.56289-.84434.56289-.84434-.25202-.84434-.56289Zm91.24626,95.41031c0-.46632.37802-.84434.84434-.84434s.84434.37802.84434.84434-.37802.84434-.84434.84434-.84434-.37802-.84434-.84434Zm28.14463,149.448c0-.31088.25202-.56289.56289-.56289s.56289.25202.56289.56289-.25202.56289-.56289.56289-.56289-.25202-.56289-.56289ZM62.80928,36.3363c0-.46632.25202-.84434.56289-.84434s.56289.37802.56289.84434-.25202.84434-.56289.84434-.56289-.37802-.56289-.84434Zm203.76714-1.40723c0-.31088.25202-.56289.56289-.56289s.56289.25202.56289.56289-.25202.56289-.56289.56289-.56289-.25202-.56289-.56289ZM40.29357,265.15217c0-.31088.37802-.56289.84434-.56289s.84434.25202.84434.56289-.37802.56289-.84434.56289-.84434-.25202-.84434-.56289ZM163.84851,90.374c0-.77719.63004-1.40723,1.40723-1.40723s1.40723.63004,1.40723,1.40723-.63004,1.40723-1.40723,1.40723-1.40723-.63004-1.40723-1.40723ZM245.7494,191.13178c0-.77719.63004-1.40723,1.40723-1.40723s1.40723.63004,1.40723,1.40723-.63004,1.40723-1.40723,1.40723-1.40723-.63004-1.40723-1.40723ZM112.34383,133.71673c0-.77719.63004-1.40723,1.40723-1.40723s1.40723.63004,1.40723,1.40723-.63004,1.40723-1.40723,1.40723-1.40723-.63004-1.40723-1.40723Zm92.87729-76.5534c0-.77719.63004-1.40723,1.40723-1.40723s1.40723.63004,1.40723,1.40723-.63004,1.40723-1.40723,1.40723-1.40723-.63004-1.40723-1.40723ZM55.49167,200.13807c0-.77719.63004-1.40723,1.40723-1.40723s1.40723.63004,1.40723,1.40723-.63004,1.40723-1.40723,1.40723-1.40723-.63004-1.40723-1.40723Z" transform="matrix(.003152 1.084583-.999093 0.002904 300.096134-18.969443)" filter="url(#es8f3oZOqPk2-filter)" fill="#d2dbed" stroke-width="0"/></svg>
