<svg id="eIMnp2SJRZx1" xmlns="http://www.w3.org/2000/svg" xmlns:xlink="http://www.w3.org/1999/xlink" viewBox="0 0 1920 230" shape-rendering="geometricPrecision" text-rendering="geometricPrecision"><path d="M0,230c0-44.03417,0-69.41,0-108c0-3.90607,0-8.26599,0-13.17728v-9.9371c30.57074,6.11415,62.68644.71637,95.03305,6.59757c22.49933,4.09079,44.90392,10.02432,67.24858,16.51681h450.55132c82.12073-22.39656,155.62575-58.3002,241.9424-64.93994c74.46148-5.72781,162.60743,13.7172,233.76686,35.06503c25.36,7.608,47.93026,21.39492,72.73805,29.87491h126.81364c58.93631-11.51858,116.51298-31.54468,177.81481-31.54468c38.80443,0,57.01989,16.27108,91.83698,26.71621c5.43044,1.62913,10.92434,3.24364,16.47258,4.82847h247.70852C1869.14905,105.3263,1920,88.69835,1920,105.48319c0,3.33953,0,8.85029,0,11.68834c0,11.68835.86375,64.24849,0,73.74978L1920,230L0,230Z" opacity="0.8" fill="#d1f9ff" stroke="#d1f9ff"/></svg>
