<svg id="eFhxT9pzyYQ1" xmlns="http://www.w3.org/2000/svg" xmlns:xlink="http://www.w3.org/1999/xlink" viewBox="0 0 1920 230" shape-rendering="geometricPrecision" text-rendering="geometricPrecision"><path d="M0,236.047295c0-45.564973,0-71.822968,0-111.754511c0-4.04186,0-8.553348,0-13.635374v-17.278107c30.54791,6.326703,62.639625,7.736827,94.962079,13.822481c22.482527,4.233002,44.870385,10.372805,67.198358,17.091h450.214846C694.434685,101.117631,767.884811,63.965837,854.137,57.095273c74.405871-5.926931,162.485994,14.194065,233.592281,36.28403c25.341061,7.872485,47.894466,22.138693,72.683729,30.913481h126.718935c58.892296-11.919011,116.425968-32.641299,177.682017-32.641299c38.775451,0,56.977308,16.836728,91.768396,27.644972c5.426385,1.685766,10.916182,3.356402,16.460278,4.996327h247.52353c47.186994-17.253344,85.143616-32.641299,97.999969-30.913481c3.309283.444748,0,22.980443,0,25.917154c0,12.094684.863105,66.482024,0,76.313617v40.437221L0,236.047295Z" transform="translate(.000001-6.047295)" opacity="0.8" fill="#d1f9ff" stroke="#d1f9ff"/></svg>
