<svg id="enNHpWL860C1" xmlns="http://www.w3.org/2000/svg" xmlns:xlink="http://www.w3.org/1999/xlink" viewBox="0 0 1920 230" shape-rendering="geometricPrecision" text-rendering="geometricPrecision"><path d="M-0.86054,1074.090698v-103.659497c0,0,0,0,0-.00001v-11.340493c50.772099,0,89.761866-1.10679,139.437127-15.535678c76.201312-22.133751,99.178237-40.996653,184.495078-47.880403c160.944089-12.985697,290.929818,57.542279,445.070602,69.979047c84.998683,6.858074,186.211736,14.94305,270.20769,13.696995c54.146342-.803245,124.908306-9.60416,175.634745-13.696995c98.923728-7.981618,133.583456-22.098644,228.539285-31.598376c101.847784-9.955046,126.356802-9.955046,189.911657-9.955046c43.649051,0,85.000783,5.36041,134.776015,15.315456c24.28142,4.856284,96.502528,18.871755,123.871117,18.871755h28.056684v115.803245h-1920Z" transform="translate(.86054-844.090698)" fill="#d1f9ff" stroke="#d1f9ff"/></svg>
